/* XPM */
static char *xpm__new_0[] = {
/* columns rows colors chars-per-pixel */
"64 64 169 2 ",
"   c #010101",
".  c #0B0903",
"X  c #040709",
"o  c #05090C",
"O  c #0C0B0C",
"+  c #0B0606",
"@  c #160A0B",
"#  c #180D0B",
"$  c #1A150A",
"%  c #070C10",
"&  c #090F14",
"*  c #091217",
"=  c #0C141A",
"-  c #131415",
";  c #12191E",
":  c #1A1A1A",
">  c #181316",
",  c #211B0D",
"<  c #241E10",
"1  c #221111",
"2  c #3B1A1C",
"3  c #2B2412",
"4  c #352A14",
"5  c #392A14",
"6  c #382F18",
"7  c #39301A",
"8  c #0F1921",
"9  c #111D27",
"0  c #1F1F20",
"q  c #111E28",
"w  c #14232E",
"e  c #152431",
"r  c #1B2F3E",
"t  c #242424",
"y  c #2C2B2C",
"u  c #27333D",
"i  c #353434",
"p  c #3D3D3D",
"a  c #383738",
"s  c #43381D",
"d  c #462122",
"f  c #544726",
"g  c #63532C",
"h  c #76582A",
"j  c #736134",
"k  c #786536",
"l  c #1F3749",
"z  c #1F384A",
"x  c #1E3445",
"c  c #20394C",
"v  c #253947",
"b  c #233E52",
"n  c #403F40",
"m  c #2E404D",
"M  c #27445A",
"N  c #28445A",
"B  c #264156",
"V  c #3E505F",
"C  c #2B4A63",
"Z  c #2C4F68",
"A  c #2D506B",
"S  c #31536F",
"D  c #325672",
"F  c #335876",
"G  c #375D7C",
"H  c #385F7F",
"J  c #38607F",
"K  c #454445",
"L  c #4C4C4C",
"P  c #504F4F",
"I  c #504F50",
"U  c #545353",
"Y  c #585757",
"T  c #585759",
"R  c #59595C",
"E  c #415260",
"W  c #636364",
"Q  c #6A696A",
"!  c #747374",
"~  c #7D7C7D",
"^  c #846F3B",
"/  c #966F35",
"(  c #88733D",
")  c #A57B3A",
"_  c #B54F56",
"`  c #A35353",
"'  c #957E43",
"]  c #BE6161",
"[  c #C2545D",
"{  c #CC6065",
"}  c #DD7171",
"|  c #D46C6C",
" . c #E2626C",
".. c #EF7578",
"X. c #F77E7E",
"o. c #E76B71",
"O. c #978044",
"+. c #A78E4C",
"@. c #B68740",
"#. c #B98A41",
"$. c #B99C53",
"%. c #B79B52",
"&. c #B8944C",
"*. c #CF9A49",
"=. c #C1A457",
"-. c #CEAE5C",
";. c #D2B15E",
":. c #EFB154",
">. c #FEBC59",
",. c #F0BB5D",
"<. c #DAB962",
"1. c #FFC05B",
"2. c #E9C568",
"3. c #EDC96A",
"4. c #F3CD6D",
"5. c #FECC68",
"6. c #FFD06A",
"7. c #FFD973",
"8. c #FCD571",
"9. c #386080",
"0. c #607A8F",
"q. c #667E93",
"w. c #4E89A5",
"e. c #6D8AA1",
"r. c #748EA6",
"t. c #5BA1C1",
"y. c #7FA7C9",
"u. c #71B5DA",
"i. c #6ABBE1",
"p. c #7BCCF5",
"a. c #838283",
"s. c #8C8B8B",
"d. c #87868B",
"f. c #999899",
"g. c #A4A3A4",
"h. c #ABAAAB",
"j. c #B0AFAF",
"k. c #B0AFB4",
"l. c #B2B1B7",
"z. c #B4B3B9",
"x. c #BBBABB",
"c. c #89B5DA",
"v. c #BABAC0",
"b. c #C0BFC2",
"n. c #84D3FE",
"m. c #9DD1FA",
"M. c #A2D6FF",
"N. c #C2C0C1",
"B. c #CDCCCC",
"V. c #C8C6C7",
"C. c #D1CFD0",
"Z. c #D3D2D3",
"A. c #D8D6D7",
"S. c #DCDADB",
"D. c #E0DEDF",
"F. c #DCDCE3",
"G. c #E4E3E4",
"H. c #E5E4EC",
"J. c #E8E7EF",
"K. c #EDEBEC",
"L. c #E8E6E7",
"P. c #F0EEEF",
"I. c #ECEBF0",
"U. c #F1EFF0",
"Y. c #F6F4F5",
"T. c #F8F6F7",
"R. c #F9F7F8",
"E. c #FBF9FA",
"W. c None",
/* pixels */
"W.W.W.W.W.W.W.W.W.W.W.W.W.W.W.W.W.W.W.W.W.W.W.W.W.W.W.W.W.W.W.W.W.W.W.W.W.W.W.W.W.W.W.W.W.W.W.W.W.W.W.W.W.W.W.W.W.W.W.W.W.W.W.W.",
"W.W.W.W.W.W.W.W.W.W.W.W.W.W.W.W.W.W.W.W.W.W.W.W.W.W.W.W.W.W.W.W.W.W.W.W.W.W.W.W.W.W.W.W.W.W.W.W.W.W.W.W.W.W.W.W.W.W.W.W.W.W.W.W.",
"W.W.W.W.W.W.W.W.W.W.W.W.W.W.W.W.W.W.W.W.W.W.W.W.W.W.W.W.W.W.W.W.W.W.W.W.W.W.W.W.W.W.W.W.W.W.W.W.W.W.W.W.W.W.W.W.W.W.W.W.W.W.W.W.",
"W.W.W.W.W.W.W.W.W.W.W.W.W.W.W.W.W.W.W.W.W.W.W.W.W.W.W.W.W.W.W.W.W.W.W.W.W.W.W.W.W.W.W.W.W.W.W.W.W.W.W.W.W.W.W.W.W.W.W.W.W.W.W.W.",
"W.W.W.W.W.W.W.W.W.W.W.W.W.W.W.W.W.W.W.W.W.W.W.W.W.W.W.W.W.W.W.W.W.W.W.W.W.W.W.W.W.W.W.W.W.W.W.W.W.W.W.W.W.W.W.W.W.W.W.W.W.W.W.W.",
"W.W.W.W.W.W.W.W.W.          W.W.W.W.W.W.W.W.W.                                    W.W.W.W.W.W.W.W.W.          W.W.W.W.W.W.W.W.W.",
"W.W.W.W.W.W.W.W.    9 m v *   W.W.W.W.W.W.W.                                        W.W.W.W.W.W.W.  @ d d #     W.W.W.W.W.W.W.W.",
"W.W.W.W.W.W.W.W.  ; y.m.p.w.o   W.W.W.W.W.    W.W.W.W.W.W.W.W.W.W.W.W.W.W.W.W.W.W.    W.W.W.W.W.  + ` ..o._ #   W.W.W.W.W.W.W.W.",
"W.W.W.W.W.W.W.W.  v m.M.n.p.8   W.W.W.W.W.    W.W.W.W.W.W.W.W.W.W.W.W.W.W.W.W.W.W.    W.W.W.W.W.  1 } X... .2   W.W.W.W.W.W.W.W.",
"W.W.W.W.W.W.W.W.  u c.c.u.r.8   W.W.W.W.W.    W.W.W.W.W.W.W.W.W.W.W.W.W.W.W.W.W.W.    W.W.W.W.W.  1 ] | { [ 2   W.W.W.W.W.W.W.W.",
"W.W.W.W.W.W.      X = = = *                                                                         @ @ @ @         W.W.W.W.W.W.",
"W.W.W.W.W.    $ 6 7 6 6 6 7 7 7 7 7 7 7 7 7 7 7 7 7 7 7 7 7 7 7 7 7 6 7 7 7 7 7 6 7 7 7 7 7 7 7 7 7 6 5 5 4 5 4 $     W.W.W.W.W.",
"W.W.W.W.W.  7 <.4.4.4.4.4.4.4.4.4.4.4.4.4.4.4.4.4.4.4.4.4.4.4.4.4.4.4.4.4.4.4.4.4.4.4.4.4.4.4.4.4.4.4.4.,.:.:.:.*.5   W.W.W.W.W.",
"W.W.W.W.W.  O.7.7.7.7.7.8.8.8.7.7.7.7.7.7.7.7.7.8.8.8.8.7.8.8.7.8.8.7.7.7.8.7.7.8.8.7.7.8.7.7.7.8.8.8.7.5.>.>.>.>./   W.W.W.W.W.",
"W.W.W.W.    +.7.7.7.7.7.7.7.7.7.7.7.7.7.7.7.7.7.7.7.7.7.7.7.7.8.7.7.7.7.7.7.7.7.7.7.7.7.7.7.7.7.7.7.7.7.6.>.>.>.1.)   W.W.W.W.W.",
"W.W.W.W.    k =.$.$.$.$.$.$.$.$.$.$.$.$.$.$.$.$.$.$.$.$.$.$.$.$.$.$.$.$.$.$.$.$.$.$.$.$.$.$.$.$.$.$.$.$.&.@.@.@.#.h     W.W.W.W.",
"W.            .     .   .   +   .   +   . .       .   .   + .   .   .   .   .     +   +   .     .   .     .   +               W.",
"    & w e e e w e e w e e e e e e e e e w w e e e w e w w w e w w e w w w e w w e e e e e e e e e e e e e w e e w 9 9 9 8 %     ",
"  o C H G H H H H H H H H H G H H G H G H G H H H H H H H H G H H H H G H H H H G H H H H H 9.G G J J J H H H H G Z C Z Z b X   ",
"  & D J H H H H H H H 9.H H H H H H H H H H H H H H H 9.H H H G G H H H H H 9.H H H H H H H 9.9.J J J J H H H 9.G S Z Z Z M %   ",
"    e B B M M B M B M M M B M B N N N N N N N N B M M M N N Z G G D M N B M M N N N N N M M M M M M B M M M B M B z z c l q     ",
"W.                                                          = q.r.E                                                           W.",
"W.W.W.  X K R R R R R R R R T R R R R R R R R R R R R R R T a.F.H.v.W T R R R R R R R R R R R R R R R R R R R R R R K     W.W.W.",
"W.W.W.  O z.J.J.H.H.H.H.J.H.H.H.H.H.H.H.H.H.H.H.H.H.H.H.H.H.H.H.H.H.H.H.H.H.H.H.H.H.H.H.H.H.H.H.H.H.H.H.H.H.H.H.H.I.z.O   W.W.W.",
"W.W.W.  O z.H.H.H.H.H.H.H.H.H.H.H.H.H.H.H.H.H.H.H.H.H.H.H.H.H.H.H.H.H.H.H.H.H.H.H.H.H.H.H.H.H.H.H.H.H.H.H.H.H.H.H.J.l.O   W.W.W.",
"W.W.W.  O x.I.I.I.I.I.I.I.I.I.I.I.K.I.I.I.I.I.I.I.I.I.J.I.I.K.I.I.I.I.I.I.I.I.I.I.I.I.I.I.I.I.I.I.I.I.I.I.I.K.H.H.J.l.o   W.W.W.",
"W.W.W.  O N.E.R.R.R.R.R.R.R.R.R.R.T.T.T.R.R.R.R.R.R.T.T.R.R.T.T.R.L.K.R.R.R.T.T.T.T.E.T.T.T.T.T.T.T.R.R.T.T.T.H.H.J.l.O   W.W.W.",
"W.W.W.  O N.E.R.R.R.R.R.R.R.R.R.R.R.R.R.R.R.R.R.R.R.R.R.R.R.R.E.b.a W K.R.R.R.R.E.T.T.T.T.T.T.E.R.T.R.R.R.R.T.J.H.J.l.O   W.W.W.",
"W.W.W.  O N.E.E.R.R.R.R.R.R.R.R.R.R.R.R.R.R.R.R.R.R.R.R.R.R.E.A.i   e H.R.R.R.R.E.T.T.T.T.E.T.T.R.E.R.R.T.T.T.H.H.J.k.O   W.W.W.",
"W.W.W.  O b.E.R.R.R.R.R.R.R.R.E.R.R.R.R.R.R.R.R.R.R.R.R.R.R.K.Y     P Y.R.R.R.R.T.T.T.E.T.T.T.T.Y.d.' Y.E.R.T.H.H.J.l.O   W.W.W.",
"W.W.W.  O N.E.R.R.R.E.T.T.T.T.E.R.R.R.R.R.R.R.R.R.R.R.R.R.R.a.X     ' R.R.R.R.R.T.E.T.T.T.E.T.E.H.y x F.E.T.T.H.H.J.z.O   W.W.W.",
"W.W.W.  O N.E.E.R.R.h.T Y Y T h.R.R.R.R.R.R.R.R.R.R.R.R.E.h.- $ < X l.E.R.R.R.R.T.T.E.E.T.T.Y.s.I & o L d.I.T.H.H.J.l.O   W.W.W.",
"W.W.W.  O N.E.T.E.T.Q   . X   ! E.E.T.T.E.T.Y.E.T.T.E.E.B.y . ( 3 : A.E.R.R.R.R.R.R.R.R.R.R.K.s o X     i G.R.J.H.J.l.O   W.W.W.",
"W.W.W.  O N.E.E.T.E.G.x.z.x.x.G.T.Y.E.E.Y.T.E.T.T.T.E.H.L   j =.. L Y.E.E.E.R.R.R.R.R.R.R.R.R.A.k.0 : g.Z.R.R.H.H.J.l.O   W.W.W.",
"W.W.W.  O N.E.E.T.E.E.E.E.E.E.E.T.E.E.Y.E.T.Y.E.E.T.Y.!   s 3.O.  Q L.G.G.G.P.E.R.R.R.R.R.R.R.E.I.K a J.E.R.Y.J.H.J.z.O   W.W.W.",
"W.W.W.  O N.E.T.T.T.T.T.E.E.T.E.E.Y.T.E.Y.E.E.T.E.E.g.O 3 -.7.j   - t t t t L Z.E.R.R.R.R.R.R.R.R.Z.B.T.R.T.T.J.H.H.l.O   W.W.W.",
"W.W.W.  O N.E.E.T.T.E.T.T.T.T.T.T.T.T.E.E.Y.E.T.E.V.0 . +.7.7.%.7 3 < 3 ,   X h.E.R.R.R.R.R.R.R.R.E.E.R.R.R.Y.H.H.J.l.O   W.W.W.",
"W.W.W.  O N.E.E.E.T.T.T.E.T.E.T.T.E.E.Y.T.T.T.E.L.K   j 4.4.8.8.3.2.2.2.k   a D.E.R.R.R.R.R.R.R.R.R.R.R.R.R.T.J.H.H.l.O   W.W.W.",
"W.W.W.  O N.E.T.T.T.E.T.E.T.E.T.E.T.T.T.T.E.E.E.h.. . 3 s 7 7 g <.7.7.%.# - x.E.R.R.R.R.R.R.R.R.R.R.R.R.R.R.T.J.H.J.l.O   W.W.W.",
"W.W.W.  O N.E.T.E.T.E.T.T.T.T.T.T.T.T.E.T.E.E.E.V.i > - - - O   ( 7.<.3 . f.E.T.R.R.R.R.R.R.R.R.R.R.R.T.R.R.T.H.H.J.l.O   W.W.W.",
"W.W.W.  O N.E.R.T.T.T.T.E.T.E.T.T.E.T.T.E.E.T.T.E.G.Z.C.C.Z.W   O.4.f   Q Y.T.R.R.R.R.R.R.R.R.R.R.R.R.R.R.R.Y.J.H.J.l.O   W.W.W.",
"W.W.W.  O N.E.R.E.T.E.T.T.T.T.T.T.T.T.E.T.T.E.T.T.E.E.E.E.Y.L . =.^ . m D.E.T.T.R.R.R.R.R.T.R.R.R.R.R.R.R.T.Y.J.H.J.l.o   W.W.W.",
"W.W.W.  O N.E.E.T.T.E.T.E.E.T.E.T.T.E.T.E.T.T.T.R.R.T.E.E.S.: 3 ' . < V.E.R.R.R.R.R.R.R.R.R.R.R.R.R.R.R.R.R.Y.J.H.J.l.O   W.W.W.",
"W.W.W.  O N.E.R.E.T.T.T.T.T.T.T.E.T.T.T.T.T.T.E.R.R.T.T.E.l.. 3 < X g.E.R.R.R.R.R.R.R.R.R.R.R.R.R.R.R.R.R.R.Y.J.H.J.l.O   W.W.W.",
"W.W.W.  O N.E.E.T.E.T.T.T.E.T.E.E.T.T.T.T.T.T.E.R.R.R.T.E.a.      ! Y.R.R.R.R.R.R.R.R.R.R.R.R.R.R.R.R.R.R.R.T.J.H.J.l.O   W.W.W.",
"W.W.W.  O N.E.E.T.T.T.E.T.T.T.T.T.T.E.T.E.T.T.T.R.R.T.E.Y.L     L L.E.R.R.R.R.R.R.R.R.R.R.R.R.R.R.R.R.R.R.R.Y.J.H.H.l.O   W.W.W.",
"W.W.W.  O N.E.E.T.E.T.T.E.T.E.T.T.T.T.E.T.T.T.E.R.R.T.E.L.y   y B.E.R.R.R.R.R.R.R.R.R.R.R.R.R.R.R.R.R.R.R.R.T.H.H.J.l.O   W.W.W.",
"W.W.W.  O V.E.R.T.T.E.E.T.T.T.T.T.E.T.E.T.E.T.T.R.T.T.E.Y.! p x.E.R.R.R.R.R.R.R.R.R.R.R.R.R.R.R.R.R.R.R.R.R.Y.J.J.I.z.O   W.W.W.",
"W.W.W.  X W h.K.E.T.T.T.R.T.E.T.R.R.R.R.R.R.R.R.R.R.R.R.R.Y.K.E.R.R.R.R.R.R.R.R.R.R.R.R.R.R.R.R.R.R.R.R.R.R.T.H.b.d.R X   W.W.W.",
"W.W.        + W K.E.E.T.R.R.E.T.R.R.R.R.R.R.R.R.R.R.R.R.R.R.R.R.R.R.R.R.R.R.R.R.R.R.R.R.R.R.R.R.R.R.R.R.R.R.R.l.t           W.W.",
"W.  X r c x * X h.E.E.T.T.T.T.T.R.R.R.R.R.R.R.R.R.R.R.R.R.R.R.R.R.R.R.R.R.R.R.R.R.R.R.R.R.R.R.R.R.R.R.R.R.R.U.P   e z x =   W.W.",
"W.  8 G H H v   s.E.T.Y.T.Y.Y.T.Y.Y.Y.Y.Y.Y.Y.Y.Y.Y.Y.Y.Y.Y.R.R.R.R.T.Y.Y.Y.Y.Y.Y.Y.Y.Y.Y.Y.Y.T.Y.Y.Y.Y.Y.T.G.y o S 9.Z z     W.",
"W.  9 G G H x   y I P P L I I P P P P P P P U L I I P P P P ~ J.R.v.T I P P P I P P P P L U L P P P P P P P L % % D H A c     W.",
"W.  8 G H H b X X                                           = 0.e.V                                             8 F F Z c X   W.",
"W.  8 G G G G C C C C C C C C C C C C C C C C C C C C C C C Z G G F Z C C C C C C C Z C C C C C Z C C C C C C C A H G Z c     W.",
"W.  9 G H G G H H H H H H 9.9.9.H H H H 9.9.H H 9.9.9.H 9.9.9.H G H 9.9.G 9.G 9.G 9.9.9.H H H H 9.9.G 9.9.9.9.9.H H H A c     W.",
"W.  8 G G G G G G G G G G G G G G G G G G G G G G G G G G G G G G G G G G G G G G G G G G G G G G G G G G G G G G G F Z z     W.",
"W.  X 9 9 9 9 9 q 8 q 9 9 9 9 9 9 9 9 9 9 9 9 9 9 9 9 9 9 9 9 9 q 8 q q 9 9 9 9 9 9 9 9 9 9 9 9 9 9 9 9 9 9 9 q 9 9 9 8 *     W.",
"W.                                                                                                                          W.W.",
"W.W.W.W.W.W.W.W.W.W.W.W.W.W.W.W.W.W.W.W.W.W.W.W.W.W.W.W.W.W.W.W.W.W.W.W.W.W.W.W.W.W.W.W.W.W.W.W.W.W.W.W.W.W.W.W.W.W.W.W.W.W.W.W.",
"W.W.W.W.W.W.W.W.W.W.W.W.W.W.W.W.W.W.W.W.W.W.W.W.W.W.W.W.W.W.W.W.W.W.W.W.W.W.W.W.W.W.W.W.W.W.W.W.W.W.W.W.W.W.W.W.W.W.W.W.W.W.W.W.",
"W.W.W.W.W.W.W.W.W.W.W.W.W.W.W.W.W.W.W.W.W.W.W.W.W.W.W.W.W.W.W.W.W.W.W.W.W.W.W.W.W.W.W.W.W.W.W.W.W.W.W.W.W.W.W.W.W.W.W.W.W.W.W.W.",
"W.W.W.W.W.W.W.W.W.W.W.W.W.W.W.W.W.W.W.W.W.W.W.W.W.W.W.W.W.W.W.W.W.W.W.W.W.W.W.W.W.W.W.W.W.W.W.W.W.W.W.W.W.W.W.W.W.W.W.W.W.W.W.W.",
"W.W.W.W.W.W.W.W.W.W.W.W.W.W.W.W.W.W.W.W.W.W.W.W.W.W.W.W.W.W.W.W.W.W.W.W.W.W.W.W.W.W.W.W.W.W.W.W.W.W.W.W.W.W.W.W.W.W.W.W.W.W.W.W."
};
