/* XPM */
static char * eve_xpm[] = {
"64 64 419 2",
"  	c None",
". 	c #F3F0F0",
"+ 	c #F5F2F2",
"@ 	c #F6F3F3",
"# 	c #F7F4F4",
"$ 	c #F4F2F2",
"% 	c #F1EFEF",
"& 	c #F5F3F3",
"* 	c #FBF8F8",
"= 	c #FEFBFB",
"- 	c #FEFCFC",
"; 	c #FEFDFD",
"> 	c #FFFDFD",
", 	c #FDFAFA",
"' 	c #F7F5F5",
") 	c #F0EEEE",
"! 	c #F8F5F5",
"~ 	c #FFFEFE",
"{ 	c #FAF8F8",
"] 	c #E9E7E7",
"^ 	c #FDFBFB",
"/ 	c #FCFBFB",
"( 	c #EDEBEB",
"_ 	c #FAF9F9",
": 	c #F2F0F0",
"< 	c #E4E2E2",
"[ 	c #FDFCFC",
"} 	c #F5F4F4",
"| 	c #F1F0F0",
"1 	c #E2E0E0",
"2 	c #FAF7F7",
"3 	c #FCFAFA",
"4 	c #F6F5F5",
"5 	c #F3F2F2",
"6 	c #ECEAEA",
"7 	c #E1E0E0",
"8 	c #FCF9F9",
"9 	c #F8F7F7",
"0 	c #F0EFEF",
"a 	c #EFEEEE",
"b 	c #EAE9E9",
"c 	c #FBFAFA",
"d 	c #FBF9F9",
"e 	c #EEEDED",
"f 	c #EEECEC",
"g 	c #E8E6E6",
"h 	c #EBEAEA",
"i 	c #F9F6F6",
"j 	c #F9F7F7",
"k 	c #F3F1F1",
"l 	c #E2DFDF",
"m 	c #CBC8C8",
"n 	c #B4B2B2",
"o 	c #A3A1A1",
"p 	c #9A9898",
"q 	c #979595",
"r 	c #999797",
"s 	c #A09E9E",
"t 	c #AFADAD",
"u 	c #C7C5C5",
"v 	c #DDDBDB",
"w 	c #EFECEC",
"x 	c #E7E4E4",
"y 	c #EAE8E8",
"z 	c #F8F6F6",
"A 	c #CAC8C8",
"B 	c #A6A5A5",
"C 	c #949393",
"D 	c #1E1E1E",
"E 	c #090808",
"F 	c #060606",
"G 	c #070707",
"H 	c #101010",
"I 	c #464646",
"J 	c #8A8A8A",
"K 	c #9B9B9B",
"L 	c #ACABAB",
"M 	c #B8B7B7",
"N 	c #E5E2E2",
"O 	c #FDFDFD",
"P 	c #F6F4F4",
"Q 	c #B4B3B3",
"R 	c #5B5A5A",
"S 	c #595959",
"T 	c #515151",
"U 	c #454545",
"V 	c #191919",
"W 	c #1B1B1B",
"X 	c #252525",
"Y 	c #636363",
"Z 	c #9A9A9A",
"` 	c #888787",
" .	c #9E9D9D",
"..	c #DDDCDC",
"+.	c #E7E5E5",
"@.	c #E4E1E1",
"#.	c #E3E1E1",
"$.	c #D3D1D1",
"%.	c #666565",
"&.	c #1F1F1F",
"*.	c #0A0A0A",
"=.	c #080808",
"-.	c #0C0C0C",
";.	c #0D0D0D",
">.	c #090909",
",.	c #212121",
"'.	c #B5B3B3",
").	c #F9F8F8",
"!.	c #C3C1C1",
"~.	c #373636",
"{.	c #151515",
"].	c #0E0E0E",
"^.	c #06080B",
"/.	c #060D16",
"(.	c #06101C",
"_.	c #060E19",
":.	c #06090F",
"<.	c #060708",
"[.	c #060C14",
"}.	c #060F1C",
"|.	c #060E1A",
"1.	c #060A11",
"2.	c #08090A",
"3.	c #202020",
"4.	c #282828",
"5.	c #9D9B9B",
"6.	c #E0DEDE",
"7.	c #E1DFDF",
"8.	c #E0DFDF",
"9.	c #CFCDCD",
"0.	c #343333",
"a.	c #0A0B0D",
"b.	c #08192D",
"c.	c #063767",
"d.	c #065293",
"e.	c #065CA3",
"f.	c #06599D",
"g.	c #06457E",
"h.	c #06284B",
"i.	c #060F1B",
"j.	c #060607",
"k.	c #06090D",
"l.	c #061A31",
"m.	c #063766",
"n.	c #065190",
"o.	c #06599E",
"p.	c #064780",
"q.	c #072749",
"r.	c #0C121A",
"s.	c #101111",
"t.	c #171717",
"u.	c #DFDEDE",
"v.	c #EFEDED",
"w.	c #6E6C6C",
"x.	c #111111",
"y.	c #0B0B0B",
"z.	c #07192D",
"A.	c #075294",
"B.	c #0372D9",
"C.	c #0174E7",
"D.	c #0174EA",
"E.	c #0275E2",
"F.	c #056DC8",
"G.	c #06457D",
"H.	c #061424",
"I.	c #06090E",
"J.	c #06294C",
"K.	c #065DA9",
"L.	c #0374DA",
"M.	c #0275E6",
"N.	c #0173EB",
"O.	c #0174E9",
"P.	c #0274E3",
"Q.	c #0568C0",
"R.	c #08345E",
"S.	c #080C11",
"T.	c #3E3D3D",
"U.	c #D2D0D0",
"V.	c #D9D8D8",
"W.	c #F2F1F1",
"X.	c #DCDBDB",
"Y.	c #4C4B4B",
"Z.	c #181818",
"`.	c #070809",
" +	c #072F58",
".+	c #036FD6",
"++	c #0173EC",
"@+	c #0470D4",
"#+	c #063664",
"$+	c #06080C",
"%+	c #06172B",
"&+	c #065BA6",
"*+	c #0173EA",
"=+	c #0657A1",
"-+	c #081322",
";+	c #131313",
">+	c #393939",
",+	c #B5B4B4",
"'+	c #DFDDDD",
")+	c #DEDDDD",
"!+	c #D0CFCF",
"~+	c #1D1D1D",
"{+	c #062F58",
"]+	c #0370D8",
"^+	c #0174E8",
"/+	c #064986",
"(+	c #060B12",
"_+	c #06213F",
":+	c #0469C9",
"<+	c #0174EB",
"[+	c #0558A1",
"}+	c #071220",
"|+	c #ADACAC",
"1+	c #DEDCDC",
"2+	c #D1D0D0",
"3+	c #505050",
"4+	c #06182C",
"5+	c #06559A",
"6+	c #0376E2",
"7+	c #0371D6",
"8+	c #06080D",
"9+	c #06172C",
"0+	c #055BA6",
"a+	c #0175E8",
"b+	c #0175EA",
"c+	c #056DC9",
"d+	c #06335F",
"e+	c #161616",
"f+	c #424242",
"g+	c #E4E3E3",
"h+	c #605F5F",
"i+	c #2C2C2C",
"j+	c #0F0F0F",
"k+	c #06080A",
"l+	c #061B33",
"m+	c #0568BA",
"n+	c #0471D4",
"o+	c #0473D9",
"p+	c #0472D5",
"q+	c #0567BB",
"r+	c #063F74",
"s+	c #061323",
"t+	c #062648",
"u+	c #06579D",
"v+	c #046FCD",
"w+	c #0474D8",
"x+	c #0472D8",
"y+	c #056FCB",
"z+	c #065AA0",
"A+	c #062E56",
"B+	c #060E18",
"C+	c #4A4A4A",
"D+	c #C5C4C4",
"E+	c #A7A6A6",
"F+	c #383838",
"G+	c #1A1A1A",
"H+	c #060C15",
"I+	c #06284C",
"J+	c #062E57",
"K+	c #062A4F",
"L+	c #062343",
"M+	c #062D55",
"N+	c #062D54",
"O+	c #062240",
"P+	c #061222",
"Q+	c #121212",
"R+	c #2E2E2E",
"S+	c #828181",
"T+	c #DBDADA",
"U+	c #E2E1E1",
"V+	c #E8E8E8",
"W+	c #EDEDED",
"X+	c #EAEAEA",
"Y+	c #878585",
"Z+	c #646363",
"`+	c #DAD9D9",
" @	c #DADADA",
".@	c #CDCCCC",
"+@	c #EDECEC",
"@@	c #EEEEEE",
"#@	c #8C8B8B",
"$@	c #6A6A6A",
"%@	c #C7C6C6",
"&@	c #E9E8E8",
"*@	c #ECEBEB",
"=@	c #BBBABA",
"-@	c #4E4D4D",
";@	c #353434",
">@	c #D6D6D6",
",@	c #C5C5C5",
"'@	c #E2E2E2",
")@	c #EBEBEB",
"!@	c #B6B5B5",
"~@	c #696868",
"{@	c #222121",
"]@	c #313131",
"^@	c #3A3A3A",
"/@	c #333333",
"(@	c #242424",
"_@	c #2B2B2B",
":@	c #292929",
"<@	c #535252",
"[@	c #A2A1A1",
"}@	c #E7E7E7",
"|@	c #DBDBDB",
"1@	c #CECECE",
"2@	c #F0F0F0",
"3@	c #F1F1F1",
"4@	c #919090",
"5@	c #747474",
"6@	c #6E6E6E",
"7@	c #777777",
"8@	c #828282",
"9@	c #868686",
"0@	c #818181",
"a@	c #757575",
"b@	c #6F6E6E",
"c@	c #747373",
"d@	c #898888",
"e@	c #A9A9A9",
"f@	c #E5E4E4",
"g@	c #E3E2E2",
"h@	c #C0BFBF",
"i@	c #E3E0E0",
"j@	c #C8C7C7",
"k@	c #CBCBCB",
"l@	c #D3D2D2",
"m@	c #E9E9E9",
"n@	c #DCDCDC",
"o@	c #D8D8D8",
"p@	c #D7D7D7",
"q@	c #E3E3E3",
"r@	c #C7C7C7",
"s@	c #CCCCCC",
"t@	c #FEFEFE",
"u@	c #CBCACA",
"v@	c #C2C2C2",
"w@	c #C9C8C8",
"x@	c #D4D3D3",
"y@	c #DEDEDE",
"z@	c #D5D5D5",
"A@	c #C9C9C9",
"B@	c #E5E3E3",
"C@	c #E8E5E5",
"D@	c #FFFFFF",
"E@	c #FCFCFC",
"F@	c #EBE8E8",
"G@	c #D1CFCF",
"H@	c #BEBCBC",
"I@	c #ABAAAA",
"J@	c #9B9999",
"K@	c #979696",
"L@	c #9F9E9E",
"M@	c #ABABAB",
"N@	c #AEADAD",
"O@	c #ACACAC",
"P@	c #A8A8A8",
"Q@	c #A1A1A1",
"R@	c #9A9999",
"S@	c #929191",
"T@	c #959494",
"U@	c #A1A0A0",
"V@	c #C9C7C7",
"W@	c #DBD9D9",
"X@	c #F5F5F5",
"Y@	c #F8F8F8",
"Z@	c #F9F9F9",
"`@	c #EBE9E9",
" #	c #E6E4E4",
".#	c #D5D3D3",
"+#	c #CECCCC",
"@#	c #FBFBFB",
"##	c #F4F4F4",
"$#	c #F6F6F6",
"%#	c #F2F2F2",
"&#	c #FAFAFA",
"*#	c #F7F7F7",
"=#	c #F3F3F3",
"-#	c #EFEFEF",
";#	c #E7E6E6",
">#	c #F7F6F6",
",#	c #ECECEC",
"'#	c #E5E5E5",
")#	c #E0E0E0",
"!#	c #E6E6E6",
"~#	c #E8E7E7",
"{#	c #E4E4E4",
"]#	c #DFDFDF",
"^#	c #DDDDDD",
"/#	c #D7D6D6",
"(#	c #D3D3D3",
"_#	c #E6E5E5",
":#	c #E7E7E6",
"<#	c #E2E2E1",
"[#	c #C4C3C3",
"}#	c #D1D1D1",
"|#	c #D9D9D9",
"1#	c #BAB9B9",
"2#	c #E3E3E2",
"3#	c #B7B6B6",
"4#	c #DEDEDD",
"5#	c #D4D4D4",
"6#	c #D5D4D4",
"7#	c #DDDDDC",
"8#	c #B3B2B2",
"9#	c #E1E1E1",
"0#	c #B9B8B8",
"a#	c #D2D1D1",
"b#	c #D8D7D7",
"c#	c #CFCFCF",
"d#	c #D0D0D0",
"e#	c #E1E1E0",
"f#	c #D6D5D5",
"g#	c #CECDCD",
"h#	c #DBDBDA",
"i#	c #E5E5E4",
"j#	c #CCCBCB",
"k#	c #CDCDCD",
"l#	c #EBEBEA",
"                                                                                                                                ",
"                                                                                                                                ",
"                                                                                                                                ",
"                                                                                                                                ",
"                                                                                                                                ",
"                                                          . + @ # @ $ %                                                         ",
"                                                    & * = - ; > > > ; - , ' %                                                   ",
"                                              ) ! = ; ~ ~ ~ ~ ~ ~ ~ ~ ~ ~ ~ ; { ]                                               ",
"                                            # ^ ; ; ; ; ; ; ; ; ; ; ; ; ; ; ; ; / (                                             ",
"                                          * - ; ; - - - - - ; ; ; ; ; ; ; ; ; ; ; _ : <                                         ",
"                                        * [ [ [ [ [ [ [ [ [ [ [ [ [ [ [ [ [ [ [ [ / } | 1                                       ",
"                                      2 3 ^ ^ / / / / / / / / / / ^ ^ ^ ^ ^ ^ ^ ^ / 4 5 6 7                                     ",
"                                    _ * 3 3 3 3 8 8 8 8 8 3 3 3 3 3 3 3 3 3 3 3 3 3 9 0 a b                                     ",
"                                  $ / { c d d d d d d d d d d d d d d d d d d d d d { e f g h                                   ",
"                                  [ i j { { { 2 2 j k l m n o p q r s t u v ) j { { 2 w 6 x y g                                 ",
"                                4 d # ! j i z ) A B C D E F F F F G H I J K L M u y z f ] < N 6                                 ",
"                              h O P P P z a Q R S T U F F F F F F G H V D W X Y Z `  ...+.@.#.+.g                               ",
"                              } j & & & $.%.&.*.G F F F F F F F F F =.-.;.-.=.F >.,.T Y '.1 1 1 b                               ",
"                              ).$ $ $ !.~.{.{.].^./.(._.:.<.F F F F F F ^.[.}.|.1.2.3.X 4.5.6.7.< 8.                            ",
"                            : 5 5 k 9.0.H ;.a.b.c.d.e.f.g.h.i.j.F F k.l.m.n.e.o.p.q.r.s.t.&.B 7.8.u.                            ",
"                            k k k v.w.x.y.=.z.A.B.C.D.D.E.F.G.H.j.I.J.K.L.M.N.O.P.Q.R.S.-.{.T.U.8.u.V.                          ",
"                            : : W.X.Y.Z.=.`. +.+++++++++++N.@+#+$+%+&+C.++++++++++*+=+-+=.;+>+,+7 '+)+                          ",
"                            % % : !+T ~+=.`.{+]+++++++++++++^+/+(+_+:+++++++++++++<+[+}+=.;+I |+#.1+u.                          ",
"                            ) ) 0 2+3+,.>.F 4+5+6+N.++++++N.7+#+8+9+0+a+N.++++N.b+c+d+:.G e+f+|+8.....                          ",
"                            a a a g+h+i+j+G k+l+G.m+n+o+p+q+r+s+j.I.t+u+v+w+x+y+z+A+B+j.*.3.C+D+..X...                          ",
"                            6 e e e E+F+G+*.F j.H+l.I+J+K+l+H+j.F F ^.s+L+M+N+O+P+$+F G Q+R+S+T+T+T+U+                          ",
"                              V+W+W+X+Y+4.x.G F F F F j.F F F F F F F F F j.F F F F F -.D Z+`+T+ @X.                            ",
"                              .@b +@@@e #@W =.F F F F F F F F F F F F F F F F F F F G Q+$@`+g+`+V.1                             ",
"                                %@&@*@e 5 =@-@=.G G F F F F F F F F F F F F F F G F ;@ .g+&@ @>@,@                              ",
"                                    '@)@)@W.h !@~@{@&.]@^@/@(@G+t.e+Z.,._@:@3.W <@[@V.)@}@|@1@                                  ",
"                                    1+2+}@X+)@2@3@)+M 4@5@6@7@8@9@0@a@b@c@d@e@.@f@X+X+g@2+h@i@                                  ",
"                            O O O y j@.@k@l@7 X+X+)@2@@@m@g@n@o@p@o@|@7 V+X+X+X+X+q@1@r@s@.@%@< O O O                           ",
"                          t@t@t@O ).+.1+T+V.u@v@w@x@y@}@m@m@b b b m@m@&@}@u.z@A@h@h@l@T+)+B@C@4 O t@t@t@                        ",
"                          t@D@D@t@E@} $ v.F@7.G@H@I@J@K@L@E+M@N@O@P@Q@R@S@T@U@n V@W@+.v.k W.X@E@t@D@D@t@                        ",
"                          t@t@t@t@Y@X@D@t@/ Z@).9 W.`@ #'+`+.#U.+#+#l@`+1 ] a 4 Y@Z@@#O O E@Y@##t@t@t@t@                        ",
"                          t@t@t@@#X@$#D@D@D@D@D@D@D@D@D@D@D@D@D@D@D@D@D@D@D@D@D@t@t@t@O O E@Y@%#&#t@t@t@                        ",
"                          O O @#*#X@Y@D@D@D@D@D@D@D@D@D@D@D@D@D@D@D@D@D@D@D@D@D@t@O O O E@E@Z@5 *#_ O t@O                       ",
"                          O O *#X@%#Y@D@D@D@D@D@D@D@D@D@D@D@D@D@D@D@D@D@D@D@D@D@O O O E@E@@#Z@2@X@X@E@O E@                      ",
"                          E@E@##=#2@Y@D@D@D@D@D@D@D@D@D@D@D@D@D@D@D@D@D@D@D@D@D@O E@E@E@@#@#Z@W+=#=#&#E@@#                      ",
"                          @#@#3@3@W+*#t@t@t@t@t@t@t@t@t@t@t@t@t@t@t@t@t@t@t@t@t@E@@#@#@#&#&#Y@)@3@3@Y@@#&#                      ",
"                          &#Z@-#-#)@$#O O O O O O O O O O O O O O O O O O O O O &#Z@Z@Z@Y@Y@$#m@-#-#*#&#                        ",
"                          Z@Y@e +@m@##E@E@E@E@E@E@E@E@E@E@E@E@E@E@E@E@E@E@E@E@&#*#*#*#*#$#$###;#+@W+4 Z@                        ",
"                          >#>#,#h }@2@Z@Z@Z@Z@&#&#&#&#&#&#&#&#&#&#&#&#&#&#&#&#Y@X@########=#%#g+h )@X@Y@                        ",
"                          ##X@)@V+'#h Y@&#Z@9 9 9 9 9 9 9 9 9 9 9 9 9 9 9 9 9 ##%#W.W.3@3@| W+)#V+&@##X@                        ",
"                          3@=#X+!#q@!#*#[ E@$#X@X@X@X@X@X@X@X@X@X@X@X@X@X@X@X@3@-#-#@@@@@@@@V+8.!#~#5 %#                        ",
"                            %#X+{#U+'@$#O t@X@5 5 5 5 5 5 5 5 5 5 5 5 5 5 5 %#,#*@*@*@)@)@)@'@]#{#}@3@-#                        ",
"                            2@X+g@)#^###O t@##2@2@2@2@2@2@2@2@2@2@2@2@2@2@2@-#m@m@m@m@V+V+V+^#y@'@}@2@                          ",
"                            ,#b 7 )+/#3@@#E@3@W+W+W+W+W+W+W+W+W+W+W+W+W+W+W+X+!#!#!#!#!#!#!#p@..8.;#e                           ",
"                            ~#b 8...(#,#####,#X+X+X+X+X+X+X+X+X+X+X+X+X+X+X+'#q@q@q@q@q@q@'@x@X.u.}@m@                          ",
"                              m@)#|@1@b b ,#,#~#~#~#~#~#~#~#~#~#~#~#~#~#~#;#)#8.8.8.8.8.8.7 !+ @)+~#f@                          ",
"                              _#7 `+,@:#'#X+@@f@f@f@f@f@f@f@f@f@f@f@f@f@f@U+..............<#[#V.y@}@                            ",
"                              )#g@V.[#}#;#g+'#U+U+U+U+U+U+U+U+U+U+U+U+U+U+X.`+`+`+`+`+`+..|#1#p@8.g@                            ",
"                                g+|#[#  2#U+]#]#]#]#]#]#]#]#]#]#]#]#]#]#)+p@p@p@p@p@p@o@]#  3#/#'@|@                            ",
"                                y@..h@    _#4#........................n@p@5#5#5#5#5#6#7#    8#V.9#                              ",
"                                  y@0#      {#T+`+`+`+`+`+`+`+`+`+`+`+o@}#}#}#}#}#a#`+^#    L )+                                ",
"                                            '#q@|#b#b#b#b#b#b#b#b#b#b#}#c#c#c#c#d#V.e#                                          ",
"                                                f@V.f#z@z@z@z@z@z@z@a#g#g#g#g#!+h#i#                                            ",
"                                                  b n@6#x@x@x@x@x@a#j#j#j#k#x@9#                                                ",
"                                                    3@&@)+/#5#(#l@.@k#d#p@9#X+                                                  ",
"                                                          3@W+)@{#{#!#l#                                                        ",
"                                                                                                                                ",
"                                                                                                                                ",
"                                                                                                                                ",
"                                                                                                                                "};
