/* XPM */
static char *xpm__new_1[] = {
/* columns rows colors chars-per-pixel */
"64 64 214 2 ",
"   c #010100",
".  c #0D0C03",
"X  c #00060C",
"o  c #030B0B",
"O  c #0B0C0C",
"+  c #050805",
"@  c #120F05",
"#  c #04120D",
"$  c #0D1106",
"%  c #131306",
"&  c #18190A",
"*  c #010A13",
"=  c #030D17",
"-  c #041518",
";  c #131414",
":  c #191C1C",
">  c #221D09",
",  c #08241A",
"<  c #1D2412",
"1  c #1D280B",
"2  c #26210E",
"3  c #2C2408",
"4  c #2A2812",
"5  c #2B351A",
"6  c #273118",
"7  c #3A3417",
"8  c #302E0E",
"9  c #021425",
"0  c #02192D",
"q  c #0A1723",
"w  c #031E38",
"e  c #031C33",
"r  c #082824",
"t  c #0E3829",
"y  c #04213B",
"u  c #0F3335",
"i  c #242627",
"p  c #2F3131",
"a  c #323535",
"s  c #363B3B",
"d  c #44390D",
"f  c #433C1A",
"g  c #3B5217",
"h  c #0F5539",
"j  c #13513A",
"k  c #104632",
"l  c #344120",
"z  c #5A4B11",
"x  c #4D441E",
"c  c #685714",
"v  c #4B691D",
"b  c #766316",
"n  c #445429",
"m  c #47582B",
"M  c #555024",
"N  c #645928",
"B  c #58742C",
"V  c #76692F",
"C  c #746D31",
"Z  c #042443",
"A  c #05294B",
"S  c #06325B",
"D  c #08335A",
"F  c #073157",
"G  c #0F2E4E",
"H  c #073664",
"J  c #063C6E",
"K  c #093C6B",
"L  c #093964",
"P  c #073F72",
"I  c #133B60",
"U  c #233D5A",
"Y  c #105252",
"T  c #3C4142",
"R  c #196C4D",
"E  c #1C7554",
"W  c #1C6E50",
"Q  c #207F5C",
"!  c #094277",
"~  c #0D4374",
"^  c #284566",
"/  c #126B75",
"(  c #4C5556",
")  c #515B5C",
"_  c #525757",
"`  c #474B4B",
"'  c #5A6465",
"]  c #586365",
"[  c #626D6E",
"{  c #606767",
"}  c #687374",
"|  c #72797A",
" . c #707778",
".. c #626F70",
"X. c #8B741A",
"o. c #87711A",
"O. c #867835",
"+. c #6B962A",
"@. c #7CA936",
"#. c #75A32F",
"$. c #17855A",
"%. c #199363",
"&. c #24926A",
"*. c #248E68",
"=. c #1EA871",
"-. c #1CA56F",
";. c #2BAD7D",
":. c #25A977",
">. c #2AB07F",
",. c #749046",
"<. c #A2871F",
"1. c #97863C",
"2. c #B49622",
"3. c #85B837",
"4. c #99801D",
"5. c #C9A826",
"6. c #D6B329",
"7. c #E1BC2B",
"8. c #99D53D",
"9. c #89C036",
"0. c #EBC42D",
"q. c #F3CB2E",
"w. c #FFD631",
"e. c #FFD831",
"r. c #A99643",
"t. c #95B95B",
"y. c #8BB04F",
"u. c #BAA64A",
"i. c #D4BD54",
"p. c #C7B24F",
"a. c #A7E548",
"s. c #B2EA5B",
"d. c #AEE954",
"f. c #9DC460",
"g. c #AED86A",
"h. c #A9D267",
"j. c #ABD569",
"k. c #B8EA6A",
"l. c #BDEB73",
"z. c #B8E570",
"x. c #98C74F",
"c. c #DAC257",
"v. c #E6CC5B",
"b. c #E8CF5C",
"n. c #EDD35E",
"m. c #F4D961",
"M. c #F1D660",
"N. c #FFE466",
"B. c #094B8A",
"V. c #0B5397",
"C. c #155693",
"Z. c #17748E",
"A. c #3B6494",
"S. c #3D689A",
"D. c #386596",
"F. c #0A59A3",
"G. c #0C5DAA",
"H. c #0857A0",
"J. c #0D63B5",
"K. c #0D66BA",
"L. c #0D68BF",
"P. c #1567B1",
"I. c #256DB2",
"U. c #487BB5",
"Y. c #4374AB",
"T. c #0E6AC2",
"R. c #1376CD",
"E. c #2B7BC8",
"W. c #297FD0",
"Q. c #227DD2",
"!. c #327EC9",
"~. c #2DB181",
"^. c #1A97A6",
"/. c #1DAABB",
"(. c #188B99",
"). c #7A8889",
"_. c #2A80D2",
"`. c #3A86D1",
"'. c #20BCCF",
"]. c #1EB1C3",
"[. c #4D84C3",
"{. c #498DD6",
"}. c #5591D6",
"|. c #5693D9",
" X c #528DD0",
".X c #23CDE1",
"XX c #838C8D",
"oX c #8C9D9F",
"OX c #889394",
"+X c #919B9B",
"@X c #93A6A8",
"#X c #99ACAD",
"$X c #98A6A7",
"%X c #97ABAD",
"&X c #A8B4B5",
"*X c #A8B3B3",
"=X c #8D9FA0",
"-X c #B9C8C9",
";X c #B9D3D7",
":X c #C9D7D9",
">X c #D0DEDF",
",X c #C2CFD0",
"<X c #DDEBEC",
"1X c #D6E3E4",
"2X c #DCF6FA",
"3X c #D4F1F5",
"4X c #C9E6E9",
"5X c #E4F3F4",
"6X c #E2F7F9",
"7X c #EBFAFB",
"8X c #E5F9FA",
"9X c #E0EEEF",
"0X c #D2DFE0",
"qX c None",
/* pixels */
"qXqXqXqXqXqXqXqXqXqXqXqXqXqXqXqXqXqXqXqXqXqXqXqXqXqXqXqXqXqXqXqXqXqXqXqXqXqXqXqXqXqXqXqXqXqXqXqXqXqXqXqXqXqXqXqXqXqXqXqXqXqXqXqX",
"qXqXqX          qXqXqXqXqXqXqXqXqXqXqXqXqXqXqXqX                qXqXqXqXqXqXqXqXqXqXqXqXqXqXqXqXqXqXqXqXqXqXqXqXqXqXqXqXqXqXqXqX",
"qXqX    . +             qXqXqXqXqXqXqXqXqX        . - r k k k +   qXqXqXqXqXqXqXqXqXqXqXqXqXqXqXqXqXqXqXqXqXqXqXqXqXqXqXqXqXqXqX",
"qXqX  % #.3.#.+.v g 1 .       qXqXqXqX    + , j E *.:.;.>.=.%.#   qXqXqXqXqXqXqXqXqXqXqXqXqXqXqXqXqXqXqXqXqXqXqXqXqXqXqXqXqXqXqX",
"qXqX  & f.k.k.s.d.a.8.@.B 1 .         . t Q ;.~.~.~.~.~.~.;.$.#   qXqXqXqXqXqXqXqXqXqXqXqXqXqXqXqXqXqXqXqXqXqXqXqXqXqXqXqXqXqXqX",
"qXqX  . f.l.l.l.l.k.k.s.a.8.+.6     - $.~.~.>.~.~.~.~.~.;.:.$.o   qXqXqXqXqXqXqXqXqXqXqXqXqXqXqXqXqXqXqXqXqXqXqXqXqXqXqXqXqXqXqX",
"qXqX  + y.l.l.l.h.z.l.l.l.s.a.8.v . # *.~.~.~.~.~.E j :.~.:.R     qXqXqXqXqXqXqXqXqXqXqXqXqXqXqXqXqXqXqXqXqXqXqXqXqXqXqXqXqXqXqX",
"qXqX    ,.l.l.f.< n g.l.l.l.k.d.8.B   ; :.~.~.>.W # # &.>.:.h   qXqXqXqXqXqXqXqXqXqXqXqXqXqXqXqXqXqXqXqXqXqXqXqXqXqXqXqXqXqXqXqX",
"qXqXqX  B l.l.h.5   n g.l.l.l.l.s.8.n   h >.>.W + o R ~.;.-.$., qXqXqXqXqXqXqXqXqXqXqXqXqXqXqXqXqXqXqXqXqXqXqXqXqXqXqXqXqXqXqXqX",
"qXqXqX  5 z.l.l.f.5   n g.l.l.l.z.d.9.& # &.R o o W ~.~.:.-.-.qXqXqXqXqXqXqXqXqXqXqXqXqXqXqXqXqXqXqXqXqXqXqXqXqXqXqXqXqXqXqXqXqX",
"qXqXqX  : f.l.l.l.f.5   n g.l.l.l.k.a.v + r + + W ~.~.~.:.-.$.qXqXqXqXqXqXqXqXqXqXqXqXqXqXqXqXqXqXqXqXqXqXqXqXqXqXqXqXqXqXqXqXqX",
"qXqXqX  . ,.l.z.l.l.f.5   n g.l.l.l.s.#.+   # E ~.~.~.:.-.h + qXqXqXqXqXqXqXqXqXqXqXqXqXqXqXqXqXqXqXqXqXqXqXqXqXqXqXqXqXqXqXqXqX",
"qXqXqXqX  n z.l.l.l.l.f.5   n g.l.l.k.3.. o E ~.~.~.~.:.%.#   qXqXqXqXqXqXqXqXqXqXqXqXqXqXqXqXqXqXqXqXqXqXqXqXqXqXqXqXqXqXqXqXqX",
"qXqXqXqX  $ t.l.z.l.l.l.f.5   n j.l.l.9.% , ;.~.~.~.>.:.h     qXqXqXqXqXqXqXqXqXqXqXqXqXqXqXqXqXqXqXqXqXqXqXqXqXqXqXqXqXqXqXqXqX",
"qXqXqXqXqX  n z.l.l.l.l.l.f.5   m z.l.y.$ , ;.~.~.~.:.$.#   qXqXqXqXqXqXqXqXqXqXqXqXqXqXqXqXqXqXqXqXqXqXqXqXqXqXqXqXqXqXqXqXqXqX",
"qXqXqXqXqX  + ,.l.l.l.l.l.l.f.6 + B l.3.  k ~.~.~.:.%.,   qXqXqXqXqXqXqXqXqXqXqXqXqXqXqXqXqXqXqXqXqXqXqXqXqXqXqXqXqXqXqXqXqXqXqX",
"qXqXqXqXqXqX  & y.z.l.l.l.l.l.t.: $ y.B   R ~.~.~.E ,     qXqXqXqXqXqXqXqXqXqXqXqXqXqXqXqXqXqXqXqXqXqXqXqXqXqXqXqXqXqXqXqXqXqXqX",
"qXqXqXqXqXqXqX  ; B g.l.l.l.l.l.,.  6 & o *.;.*.h #     qXqXqXqXqXqXqXqXqXqXqXqXqXqXqXqXqXqXqXqXqXqXqXqXqXqXqXqXqXqXqXqXqXqXqXqX",
"qXqXqXqXqXqXqXqX    6 ,.t.j.g.j.y.:     # k r #     qXqXqXqXqXqXqXqXqXqXqXqXqXqXqXqXqXqXqXqXqXqXqXqXqXqXqXqXqXqXqXqXqXqXqXqXqXqX",
"qXqXqXqXqXqXqXqXqX      O & < & .                 qXqXqXqXqXqXqXqXqXqXqXqXqXqXqXqXqXqXqXqXqXqXqXqXqXqXqXqXqXqXqXqXqXqXqXqXqXqXqX",
"qXqXqXqXqXqXqXqXqXqXqX                  qXqXqXqXqXqXqXqXqXqXqXqXqXqXqXqXqXqXqXqXqXqXqXqXqXqXqXqXqXqXqXqXqXqXqXqXqXqXqXqXqXqXqXqX",
"qXqXqXqXqXqXqXqXqXqXqXqXqXqXqXqXqXqX    qXqXqXqXqXqXqXqXqXqXqXqXqXqXqXqXqXqXqXqXqXqXqXqXqXqXqXqXqXqXqXqXqXqXqXqXqXqXqXqXqXqXqXqX",
"qXqXqXqXqXqXqXqXqXqXqXqXqXqXqXqXqXqX      qXqXqXqXqXqXqXqXqXqXqXqXqXqXqXqXqXqXqXqXqXqXqXqXqXqXqXqXqXqXqXqXqXqXqXqXqXqXqXqXqXqXqX",
"qXqXqXqXqXqXqXqXqX                                    qXqXqXqXqXqXqXqXqXqXqXqXqXqXqXqXqXqXqXqXqXqXqXqXqXqXqXqXqXqXqXqXqXqXqXqXqX",
"qXqXqXqXqXqXqXqXqX  i  .| | | | | | | |  . .| |  .) o   qXqXqXqXqXqXqXqXqXqXqXqXqXqXqXqXqXqXqXqXqXqXqXqXqXqXqXqXqXqXqXqXqXqXqXqX",
"qXqXqXqXqXqXqXqXqX  } 7X7X7X7X7X7X7X7X7X7X7X7X7X8X;X:   qXqXqXqXqXqXqXqXqXqXqXqXqXqXqXqXqXqXqXqXqXqXqXqXqXqXqXqXqXqXqXqXqXqXqXqX",
"qXqXqXqXqXqXqXqX    +X7X7X5X7X7X7X7X7X7X7X7X7X7X8X4XT   qXqXqXqXqXqXqXqXqXqXqXqXqXqXqXqXqXqXqXqXqXqXqXqXqXqXqXqXqXqXqXqXqXqXqXqX",
"qXqXqXqXqXqXqXqX  O -X7X7X7X7X7X7X5X-X1X7X7X7X7X6X3X]   qXqXqXqXqXqXqXqXqXqXqXqXqXqXqXqXqXqX  qXqXqXqXqXqXqXqXqXqXqXqXqXqX  qXqX",
"qXqXqXqXqXqXqXqX  i >X7X7X7X7X7X5X[ O a ,X7X7X7X8X2X).  qXqXqXqXqXqXqXqXqXqXqXqXqXqXqXqX        qXqXqXqXqXqXqXqXqXqXqX        qX",
"qXqXqXqXqXqXqXqX  s 5X7X7X7X7X7X$XO     +X7X7X7X7X2X#X+   qXqXqXqXqXqXqXqXqXqXqXqXqXqX    8 O.&   qXqXqXqXqXqXqXqXqX    d b +   ",
"qXqXqXqXqXqXqXqX  { 7X7X7X7X7X>Xa X r   OX7X7X7X7X2X;X:   qXqXqXqXqXqXqXqXqXqXqXqX    . V v.i.4   qXqXqXqXqXqXqX    & X.q.2.%   ",
"qXqXqXqXqXqXqX    OX7X7X7X7X7X .  Y /   OX7X7X7X7X2X4Xa   qXqXqXqXqXqXqXqXqXqXqX    7 u.m.1.4     qXqXqXqXqX    . d 5.0.X.&     ",
"qXqXqXqXqXqXqX  O &X7X7X7X7X-X; - /./   OX7X7X7X7X6X3X(   qXqXqXqXqXqXqXqXqX    @ V n.c.N .     qXqXqXqXqX    & X.q.5.d     qXqX",
"qXqXqXqXqXqXqX  : :X7X7X7X<XT   / .X/   a _ XX9X7X6X2X).  qXqXqXqXqXqXqXqX  + 7 u.M.1.>     qXqXqXqXqX    . z 5.0.o.%     qXqXqX",
"qXqXqXqXqXqXqX  T 9X7X7X7XOX  u '..XZ.o     + +X7X7X2X%X+   qXqXqXqXqX    % O.b.i.M + * =   qXqXqXqX    > 4.q.2.8   O *   qXqXqX",
"qXqXqXqXqXqXqX  ' 7X7X7X<Xs   Y Z.^.'.^.(.r   +X7X7X2X;X;   qXqXqXqX    f p.m.O.&   0 V.F   qXqX    + z 6.0.b @   e ! 0   qXqXqX",
"qXqXqXqXqXqXqX  XX7X7X7X5X_       - ]..X(.  s 1X7X7X2X4Xp   qXqX    & O.M.p.x . = I I._.D         3 <.q.2.8   * H F.H.0   qXqXqX",
"qXqXqXqXqXqX  . *X7X7X7X7X>XXX| : - ]./.q O *X7X7X7X6X3X_       . x p.n.O.&   e C.`.|._.D     + c 6.7.b @   w B.K.T.F.0   qXqXqX",
"qXqXqXqXqXqX  : :X7X7X7X7X7X7X5Xa # /.Y   { 5X7X7X7X8X3X'     > O.m.p.f   * K E.{.}.}.W.D   3 2.q.<.8   * H G.T.T.L.F.0   qXqXqX",
"qXqXqXqXqXqX  a <X7X7X7X7X7X7X<Xa - Z.# i :X7X7X7X7X>X[ O   M p.n.O.&   y C.{.}.}.}.}.W.D   <.7.c .   y B.T.T.T.T.L.F.0   qXqXqX",
"qXqXqXqXqXqX  ) 7X7X7X7X7X7X7X<Xa o - . +X7X7X7X5X#Xp   > 1.m.p.f   = ~ !. X}.}.}.}.}.W.D   z 3   = J G.T.T.T.T.T.L.H.0   qXqXqX",
"qXqXqXqXqXqX  ).7X7X7X7X7X7X7X<XT     ` <X7X7X>X{ O . N c.b.V @   Z G.{.}.}.}.}.}.}.}.W.D       Z V.K.T.T.T.L.T.T.T.F.0   qXqXqX",
"qXqXqXqXqX  . #X7X7X7X7X7X7X7X7X$Xi s ,X7X7X<X`   4 r.m.u.7   = ~ !.}.}.}.}.}.}.}.}.}.W.D   = P G.T.T.T.T.T.T.T.T.L.F.0   qXqXqX",
"qXqXqXqXqX  ; ,X7X7X5X7X5X7X7X7X7X0X<X7X7X7X-XO 4 i.v.N O   A P.{.}.}.}.}.}.}.}.}.}. XW.D   J K.T.T.T.T.T.T.T.T.T.L.H.0   qXqXqX",
"qXqXqXqXqX  p <X7X5X7X7X7X7X7X7X7X7X7X7X7X7X0Xi @ V 8     K !.}.}.}.}.}.}.}.}.}.}.}.}.W.D   J T.T.T.T.T.T.L.T.T.T.L.F.0   qXqXqX",
"qXqXqXqXqX  ( 5X7X7X7X7X5X7X7X7X7X7X8X7X7X7X7X+XO   O ;   D.|.}.}.}.}.}.}.}.}.}.}.}.}.W.D   J T.T.T.T.T.T.T.T.T.T.T.H.0   qXqXqX",
"qXqXqXqXqX  | 7X7X7X7X7X7X7X7X7X7X7X7X7X7X7X7X7X*X| *X]   A.|.}.}.}.}.}.}.}.}.}.}.}.}.W.D   J T.T.T.T.T.T.T.T.T.T.T.F.0   qXqXqX",
"qXqXqXqX    +X5X<X<X<X<X<X<X<X<X<X5X7X7X9X<X<X<X<X<X<X'   A.|.}.}.}.}.}.}.}.}.}.}.}.}.W.H   P T.T.T.T.T.T.T.T.T.T.L.F.0   qXqXqX",
"qX          i p p p p p p p p p s &X2X:X` p p p p p p ;   S.|.}.}.}.}.}.}.}.}.}.}.}.}.W.J.P V.L.T.T.T.T.T.T.T.T.T.T.F.0   qXqXqX",
"    = = = = * * * * * * * * * * = C.!.I.0 * * * * * X X   A.|.}.}.}.}.}.}.}.}.}.}.}.}.W.R.J.F.L.T.T.T.T.T.T.T.T.T.L.F.0   qXqXqX",
"  9 V.G.G.G.G.G.G.G.G.G.G.G.G.G.G.T.T.T.J.G.G.G.G.G.F.w   A.|.}.}.}.}.}.}.}.}.}.}.}.}.W.L.V.H.T.T.T.T.T.T.T.T.T.T.L.F.0   qXqXqX",
"  9 L.T.T.T.T.T.T.T.T.T.T.T.T.T.T.T.T.T.T.T.T.T.T.T.K.Z   A.|.}.}.}.}.}.}.|.}.|.}.}.}.E.~ o ! L.T.T.T.T.T.T.T.T.T.L.F.0   qXqXqX",
"  9 J.T.T.V.A Z Z Z Z Z Z Z Z Z Z Z Z Z P T.T.T.T.T.K.Z   A.|.}.}.}.}.}.U.U.U.U.[.}.}._.D   J T.T.T.L.G.V.G.F.J.T.L.F.0   qXqXqX",
"  9 J.T.T.K   + O   O +   O   . O +     9 T.T.T.T.T.J.Z   A.|.}.}.}.}.^ = X * O q S.}._.D   J T.T.J.A X * X * 0 V.T.F.0   qXqXqX",
"  9 J.T.T.H   ' #X#X%X%X#X#X#X#X%X#XOX; 9 K.T.T.T.T.K.Z   A.|.}.}.|.Y.* @ f f 7   u  XW.D   J T.T.B.  & d d 3   A T.F.0   qXqXqX",
"  9 J.T.T.K   a ) ) ) ) ) ) ) ) ) ) ` O 9 J.B.B.T.T.K.Z   A.|.}.}.|.S.+ N M.M.v.> - [._.D   J T.T.P   o.q.q.5.. w L.F.0   qXqXqX",
"  9 K.T.T.H               X             0 F.- 9 J.T.K.Z   A.|.}.}.|.S.  N N.N.b.4 q [.W.D   J T.T.K   X.w.w.5.. w L.F.0   qXqXqX",
"  9 J.T.T.H   ' #X@X@X@X@X@X@X@X@X@XOX; 9 G.9 0 J.T.K.Z   A.|.}.}.|.S.  N N.N.v.> q [.W.D   K T.T.K   X.w.w.5.@ w K.F.0   qXqXqX",
"  9 J.T.T.J   s ' ' ' ' ' ' ' ' ' ' ) O 9 J.B.V.T.T.K.Z   A.|.}.}.|.S.  N N.N.v.2 q [._.D   K T.T.P   X.w.w.5.@ w L.F.0   qXqXqX",
"  9 J.T.T.H                             9 J.T.T.T.T.P.Z   A.|.}.}.|.S.  N m.N.b.2 q [._.D   J T.T.K   X.w.w.5.@ w K.F.0   qXqXqX",
"  9 K.T.T.K   ) =X=X=X=X=X=XoX=X=X=X).; 9 J.T.T.T.T.K.Z   A.|.}.|.|.S.X N N.N.n.2 q [._.D   J T.T.J   X.e.e.5.@ w L.F.0   qXqXqX",
"  X F S S 0   T ..[ [ ........' [ [ ] O * F S D S S F 9 . G ^ ^ ^ ^ G   4 V C N @ o U I 9   e D H e   d b b z + = F A *   qXqXqX",
"                                                                                                                          qXqXqX",
"qXqXqXqXqXqXqXqXqXqXqXqXqXqXqXqXqXqXqXqXqXqXqXqXqXqXqXqXqXqXqXqXqXqXqXqXqXqXqXqXqXqXqXqXqXqXqXqXqXqXqXqXqXqXqXqXqXqXqXqXqXqXqXqX"
};
