/* XPM */
static char * sapling_xpm[] = {
"64 64 75 1",
" 	c None",
".	c #64B337",
"+	c #6EBA40",
"@	c #77C149",
"#	c #7FC84F",
"$	c #7FC94F",
"%	c #80C750",
"&	c #80C650",
"*	c #78C249",
"=	c #6FBA41",
"-	c #65B338",
";	c #5EB132",
">	c #61B235",
",	c #6DB940",
"'	c #79C24A",
")	c #7AC34B",
"!	c #6EBA41",
"~	c #62B236",
"{	c #73BD44",
"]	c #7DC74E",
"^	c #7EC74E",
"/	c #73BE45",
"(	c #66B439",
"_	c #60B134",
":	c #7CC54C",
"<	c #80C850",
"[	c #7DC54D",
"}	c #6FBB41",
"|	c #5FB133",
"1	c #6CB93F",
"2	c #7BC54C",
"3	c #7CC54D",
"4	c #5FB033",
"5	c #6EB940",
"6	c #7DC64D",
"7	c #7DC64E",
"8	c #60AF34",
"9	c #60B234",
"0	c #72BC44",
"a	c #7EC84F",
"b	c #80C74F",
"c	c #73BD45",
"d	c #65B438",
"e	c #79C34A",
"f	c #61AF34",
"g	c #7EC84E",
"h	c #70BB42",
"i	c #7AC44B",
"j	c #7BC44C",
"k	c #75BE46",
"l	c #76BF47",
"m	c #6AB73D",
"n	c #6BB73E",
"o	c #61AF35",
"p	c #67B53B",
"q	c #68B63B",
"r	c #67B53A",
"s	c #68B53B",
"t	c #69B63C",
"u	c #6BB83E",
"v	c #6CB83F",
"w	c #70BB43",
"x	c #71BC43",
"y	c #77C148",
"z	c #78C149",
"A	c #62B235",
"B	c #9B7868",
"C	c #96715F",
"D	c #8B634B",
"E	c #896148",
"F	c #8B634C",
"G	c #997564",
"H	c #8D6751",
"I	c #896149",
"J	c #8E6751",
"                                                                ",
" .+@#$$$$$$$$$$$#%%&                        &%%#$$$$$$$$$$$#*=- ",
" ;;;>,'$$$$$$$$$$$$$$#&                  &#$$$$$$$$$$$$$$)!~;;; ",
" ;;;;;;-{]$$$$$$$$$$$$$$&              &$$$$$$$$$$$$$$^/(;;;;;; ",
" ;;;;;;;;_!:$$$$$$$$$$$$$<            %$$$$$$$$$$$$$[}>;;;;;;;; ",
" ;;;;;;;;;;|12$$$$$$$$$$$$#          #$$$$$$$$$$$$3,|;;;;;;;;;; ",
" 4;;;;;;;;;;;|56$$$$$$$$$$$#        #$$$$$$$$$$$7=|;;;;;;;;;;;4 ",
" 8;;;;;;;;;;;;;90a$$$$$$$$$$<      b$$$$$$$$$$#c>;;;;;;;;;;;;;8 ",
" 4;;;;;;;;;;;;;;;d'$$$$$$$$$$&    &$$$$$$$$$$e(;;;;;;;;;;;;;;;4 ",
" f;;;;;;;;;;;;;;;;;!g$$$$$$$$$    $$$$$$$$$ah|;;;;;;;;;;;;;;;;f ",
"  ;;;;;;;;;;;;;;;;;;di$$$$$$$$&  &$$$$$$$$j(;;;;;;;;;;;;;;;;;;  ",
"  4;;;;;;;;;;;;;;;;;;_k$$$$$$$#  #$$$$$$$l9;;;;;;;;;;;;;;;;;;4  ",
"  f;;;;;;;;;;;;;;;;;;;;=#$$$$$$  $$$$$$#h;;;;;;;;;;;;;;;;;;;;f  ",
"   ;;;;;;;;;;;;;;;;;;;;;mg$$$$$&&$$$$$gn;;;;;;;;;;;;;;;;;;;;;   ",
"   o;;;;;;;;;;;;;;;;;;;;;p^$$$$%%$$$$^q;;;;;;;;;;;;;;;;;;;;;o   ",
"    4;;;;;;;;;;;;;;;;;;;;;r^$$$%%$$$^s;;;;;;;;;;;;;;;;;;;;;4    ",
"     4;;;;;;;;;;;;;;;;;;;;;qg$$##$$at;;;;;;;;;;;;;;;;;;;;;4     ",
"      4;;;;;;;;;;;;;;;;;;;;;u#$$$$$v;;;;;;;;;;;;;;;;;;;;;4      ",
"       4;;;;;;;;;;;;;;;;;;;;;w$$$$x;;;;;;;;;;;;;;;;;;;;;4       ",
"        o;;;;;;;;;;;;;;;;;;;;;y$$z|;;;;;;;;;;;;;;;;;;;;o        ",
"          84;;;;;;;;;;;;;;;;;;A66~;;;;;;;;;;;;;;;;;;4f          ",
"             f484;;;;;;;;;;;;;;nu;;;;;;;;;;;;;;484f             ",
"                             $$$$$$                             ",
"                             $$$$$$                             ",
"                             $$$$$$                             ",
"                             $$$$$$                             ",
"                             $$$$$$                             ",
"                             $$$$$$                             ",
"                             $$$$$$                             ",
"                             $$$$$$                             ",
"                             $$$$$$                             ",
"                             $$$$$$                             ",
"                             $$$$$$                             ",
"                             $$$$$$                             ",
"                             $$$$$$                             ",
"                             $$$$$$                             ",
"                             $$$$$$                             ",
"                             $$$$$$                             ",
"                             $$$$$$                             ",
"                             $$$$$$                             ",
"                             $$$$$$                             ",
"                             $$$$$$                             ",
"                             $$$$$$                             ",
"                             $$$$$$                             ",
"                      BBBBBBBBBBBBBBBBBBBB                      ",
"                    BBBBBBBBBBBBBBBBBBBBBBBB                    ",
"                   BBBBBBBBBBBBBBBBBBBBBBBBBB                   ",
"                  BBBBBBBBBBBBBBBBBBBBBBBBBBBB                  ",
"                 BBBBBBBBBBBBBBBBBBBBBBBBBBBBBB                 ",
"                 BBBBBBBBBBBBBCDDCBBBBBBBBBBBBB                 ",
"                BBBBBBBBBBBBBBDEEFBBBBBBBBBBBBBB                ",
"                BBBBBBBBBBBBBBDEEDBBBBBBBBBBBBBB                ",
"                BBBBBBBBBBBBBBCDDCBBBBBBBBBBBBBB                ",
"         BBBBBBBBBBBBBBBBBBBBBBBBBBBBBBBBBBBBBBBBBBBBBB         ",
"       BBBBBBBBBBBBBBBBBBBBBBBBBBBBBBBBBBBBBBBBBBBBBBBBBB       ",
"      BBBBBBBBBBBBBBGHIHGBBBBBBBBBBBBBBGHIHGBBBBBBBBBBBBBB      ",
"     BBBBBBBBBBBBBBBHEEEHBBBBBBBBBBBBBBHEEEHBBBBBBBBBBBBBBB     ",
"     BBBBBBBBBBBBBBBIEEEIBBBBBBBBBBBBBBIEEEIBBBBBBBBBBBBBBB     ",
"    BBBBBBBBBBBBBBBBHEEEJBBBBBBBBBBBBBBHEEEJBBBBBBBBBBBBBBBB    ",
"    BBBBBBBBBBBBBBBBGHIJGBBBBBBBBBBBBBBGHIJGBBBBBBBBBBBBBBBB    ",
"    BBBBBBBBBBBBBBBBBBBBBBBBBBBBBBBBBBBBBBBBBBBBBBBBBBBBBBBB    ",
"    BBBBBBBBBBBBBBBBBBBBBBBBBBBBBBBBBBBBBBBBBBBBBBBBBBBBBBBB    ",
"    BBBBBBBBBBBBBBBBBBBBBBBBBBBBBBBBBBBBBBBBBBBBBBBBBBBBBBBB    ",
"    BBBBBBBBBBBBBBBBBBBBBBBBBBBBBBBBBBBBBBBBBBBBBBBBBBBBBBBB    "};
