/* XPM */
static char *xpm__new_3[] = {
/* columns rows colors chars-per-pixel */
"64 64 195 2 ",
"   c #893C29",
".  c #8A3C29",
"X  c #8A3C2A",
"o  c #8A3D2A",
"O  c #8B3D2A",
"+  c #8C3D2A",
"@  c #8D3E2B",
"#  c #8D3F2B",
"$  c #8E3F2B",
"%  c #8F3F2C",
"&  c #903F2C",
"*  c #90402C",
"=  c #91402C",
"-  c #91402D",
";  c #91412D",
":  c #92412D",
">  c #93412D",
",  c #92412E",
"<  c #93422E",
"1  c #94412D",
"2  c #95422E",
"3  c #95432F",
"4  c #96432F",
"5  c #97432F",
"6  c #984430",
"7  c #9B4531",
"8  c #9D4631",
"9  c #9E4732",
"0  c #9F4732",
"q  c #9C4833",
"w  c #9D4833",
"e  c #9D4834",
"r  c #9E4934",
"t  c #9F4934",
"y  c #A24933",
"u  c #A34934",
"i  c #A04A35",
"p  c #A34A34",
"a  c #A24B36",
"s  c #A44A34",
"d  c #A54A34",
"f  c #A54A35",
"g  c #A54B35",
"h  c #A64B35",
"j  c #A64B36",
"k  c #A64C35",
"l  c #A44D37",
"z  c #A54D37",
"x  c #A64C36",
"c  c #A74C36",
"v  c #A74D37",
"b  c #A84C36",
"n  c #A94C36",
"m  c #A94D36",
"M  c #A84D37",
"N  c #A94D37",
"B  c #AA4D37",
"V  c #AA4E37",
"C  c #AC4E37",
"Z  c #A54D38",
"A  c #A64D38",
"S  c #AB4F38",
"D  c #AA4F39",
"F  c #AC4E38",
"G  c #AD4E38",
"H  c #AC4F39",
"J  c #AE4F38",
"K  c #AF4F38",
"L  c #AB5039",
"P  c #AD5039",
"I  c #AF5039",
"U  c #AE513A",
"Y  c #AF513A",
"T  c #AE523C",
"R  c #B05039",
"E  c #B15039",
"W  c #B35139",
"Q  c #B0523B",
"!  c #B1523B",
"~  c #B45139",
"^  c #B4513A",
"/  c #B2533C",
"(  c #B3533C",
")  c #B7533C",
"_  c #B0543D",
"`  c #B4543C",
"'  c #B5543C",
"]  c #B4543D",
"[  c #B7553D",
"{  c #B9543C",
"}  c #BB553D",
"|  c #BB563D",
" . c #BA573F",
".. c #BB573F",
"X. c #BD553D",
"o. c #BD563D",
"O. c #BE563E",
"+. c #BE573E",
"@. c #BE583F",
"#. c #C0573E",
"$. c #C1573E",
"%. c #C1573F",
"&. c #C1583F",
"*. c #C2583F",
"=. c #C3583F",
"-. c #C2593F",
";. c #C3593F",
":. c #B75841",
">. c #B85840",
",. c #BA5A42",
"<. c #BA5A43",
"1. c #BB5A43",
"2. c #BF5941",
"3. c #BF5D45",
"4. c #C25940",
"5. c #C35940",
"6. c #C15A41",
"7. c #C35A41",
"8. c #C45A40",
"9. c #C45A41",
"0. c #C55B41",
"q. c #C55B42",
"w. c #C45B43",
"e. c #C45C43",
"r. c #C65C42",
"t. c #C65C43",
"y. c #C65D43",
"u. c #C75D43",
"i. c #C25E46",
"p. c #C25F46",
"a. c #C25F47",
"s. c #C35F47",
"d. c #C55D44",
"f. c #C65D44",
"g. c #C75D44",
"h. c #C55E45",
"j. c #C85E44",
"k. c #C85E45",
"l. c #C95F45",
"z. c #C95F46",
"x. c #CA6046",
"c. c #CA6047",
"v. c #CB6147",
"b. c #C66148",
"n. c #C76148",
"m. c #C76149",
"M. c #C76249",
"N. c #CB6148",
"B. c #C86249",
"V. c #C96249",
"C. c #C8624A",
"Z. c #C8634A",
"A. c #C9634A",
"S. c #CB634A",
"D. c #CA634B",
"F. c #CC6248",
"G. c #CC6249",
"H. c #CD6349",
"J. c #CD634A",
"K. c #CB644A",
"L. c #CB644B",
"P. c #CC644B",
"I. c #CC654B",
"U. c #CD654B",
"Y. c #CE644A",
"T. c #CE644B",
"R. c #CF654B",
"E. c #CD654C",
"W. c #CE654C",
"Q. c #CF654C",
"!. c #CD664C",
"~. c #CD664D",
"^. c #CF664C",
"/. c #CE664D",
"(. c #CF664D",
"). c #CF674D",
"_. c #D0664C",
"`. c #D0664D",
"'. c #D1674D",
"]. c #D0674E",
"[. c #D1674E",
"{. c #D0684E",
"}. c #D1684E",
"|. c #D1684F",
" X c #D2684E",
".X c #D2684F",
"XX c #D2694F",
"oX c #D3694F",
"OX c #D36950",
"+X c #D36A50",
"@X c #D46A50",
"#X c #D56A50",
"$X c #D56B50",
"%X c #D56B51",
"&X c None",
/* pixels */
"&X&X&X&X&X&X&X&X&X&X&X&X&X&X&X&X&X&X&X&X&X&X&X&X&X&X&X&X&X&X&X&X&X&X&X&X&X&X&X&X&X&X&X&X&X&X&X&X&X&X&X&X&X&X&X&X&X&X&X&X&X&X&X&X",
"&X&X&X&X&X&X&X&X&X&X&X&X&X&X&X&X&X&X&X&X&X&X&X&X&X&X&X&X&X&X&X&X&X&X&X&X&X&X&X&X&X&X&X&X&X&X&X&X&X&X&X&X&X&X&X&X&X&X&X&X&X&X&X&X",
"&Xh h h y $ O O O O &X&X$X+X$X$X+X$X$X+X$X$X+X+X$XoXk.*.*.*.*.&X&X$XoXoXoX$X$X$X+X+X+X$X%X+X$XP.6.*.*.*.&X&Xh h h h 5 O O O O &X",
"h h h h h 5 O O O O c +X+X+X$X+X+X$X+X$X$X+X+X$X$XoXP.6.*.*.$.0.oX$X$X$X$X$XoX$X$X+X$X+X+X%X+X+X0.*.*.*.$.E h h h h 8 $ O O O O ",
"h h h h h 5 O O O O A +X$X+X+X$X+X$X+X+X+X$X$X$X$X$X_.$.$.*.$.0.oX+X$X+X+X$X+X$X+X$X+X$X+X+X+XoX0.*.*.=.*.! g h h c 8 O O O O O ",
"h h h h h 5 O O O O A $X+X$X$X+X$X+X$X+X$XoX$X$XoX$X_.*.*.*.$.0.].$X+X+X$X+X+X+X+X$X$X+X+X+X+XoX0.*.*.*.$.E g h h h 8 $ O O O $ ",
"h h h h h 5 O O O O A +X$X+X+X$X$X+X$X+X+X$X$X$X$X$X_.=.*.=.$.0.oX$X+X$X+X+X$X+X$X+X+X$X%X+X+X+Xe.=.*.*.$.E g h h h 8 $ O O O O ",
"h h h h c 5 O O O   A +X+X$X+X+X+X$X+X+X$X+X$X$X$X$X_.$.*.*.*.0.oXoX$X+X$X$X+X$X+X%X+X+X%X+X+X+X0.=.*.*.$.! g g h h 8 O O O O O ",
"h h h h c 3 O O O O A +X+X+X+X$X$X$XoXoX$XF.k.F.oX$XF.0.*.$.$.0.].$X$XoX+X$X+X$X+X$X+X$X$X+X$X+X0.*.*.*.$.! h h h h 8 $ O O O O ",
"h h h h h 5 O O O   A +X+X+X$X+X$XoX$X$X$Xg.$.0.oX$X].$.*.$.$.0.oXoX$X$X+X$X$X+X$X+X+X+X+X$X+X+X0.$.*.*.$.K h h h n 8 O O O O O ",
"h h h h h 5 O O O   l +X$X+X+X$X$X$XoX$X$X].F.].$X$X_.$.*.6.$.0.].$XoX$X$X+X+X%X$X+X$X+X+X+X+XoXe.=.*.*.$.! h h h h 8 $ O O O O ",
"h h h h c 4 O O O O A +X+X$X+X+XoX$X$X$X+X$X$X$XoX$X_.=.=.$.$.0.oX$XoX$X+X%X+X+X+X$X+X$X+X+X+X+X0.*.$.$.$.E h h h h y O O O O O ",
"h h h h h 5 O O O O A +X$X+X+X%X$X$X$X$X$X$X$X$X$X$X_.$.$.*.*.0.].$X$X$XoX$X+X+X$X+X+X$X+X$X+X+X0.$.$.*.6.L h h h h y X O O O O ",
"h c c c h < @ @ @ @ e L.+X$X+X+XoXoXoXoXoX].oX].oXoXZ.$.$.$.$.{ a.oXoXoXoXoX{.{.{.+X{.+X+X+X+X).0.0.=.=.O.c c n h h 5 $ $ $ $ O ",
"P.Z.b.Z.b.b.a.a.a.a.a.).+X$X+X).k.u.e.g.2.S ! ! ! ! E C C K C h h ! / ! L e 8 8 q q l Z.$X+X$X+X_._.]._.F.g.Z.Z.Z.x.O.! ~ ~ ! ) ",
"$X$X$X$X$X$X$X$X$X$X$X$X$X+X+X+X0.$.$.$.$.C g h h h h h h h h h h h h h h 5 O O O   l {.+X$X$X+X$X$X$XoX$X$XoX$X$X$X_.=.=.=.=.$.",
"$X+X$X+X$X+X+X$X$X+X+X$X+X$X$XoXe.*.*.*.*.E h h h h h h h h h h h h h h h 5 O O O O A +X$X$XoX].oX$XoX$X$X+X+X$X+X$X_.*.*.*.*.*.",
"+X$X+X+X+X$X$X+X+X$X$X+X+X+X+XoX0.*.*.*.*.! g h h h h h h h h h h h h h h 5 O O O O A $X$X].0.6.v.$XoX$X+X$X$X+X+X$X_.=.*.*.*.*.",
"$X$X+X$X$X+X+X$X+X+X+X$X$X+X$XoX0.*.*.*.$.E h h h h h h h h h h h h h h h 5 O O O   A $XoXoXk.0.F.$X$X$X$X+X+X$X+X+X).=.*.*.*.*.",
"+X+X$X+X+X$X+X+X$X+X$X+X+X$X+XoXe.*.*.*.$.E g h h h h h h h h h h h h h h 5 O O O   c $XoX$X+XoX$X$X$XoX+X+X$X+X$X$XP.=.*.*.*.*.",
"$X+X+X$X$X$X+X$X$X+X$X+X$X$XoXoX0.*.*.=.*.E g g h h h h h h h h h h h h c 4 O O O   c +X+X+X$X+X$XoX+X$XoX$X+X$XoX$X_.=.*.*.*.*.",
"+X$X+X+X+X+X$X+X+X$X+X$XoXoX$XoX0.$.*.$.*.! g h h h h h h h h h h h h h c 3 O O O O A +X$X+X+X$X$X$X$X$X$X+X+X$X$XoX_.=.*.*.*.*.",
"$X+X+X$X$X+X+X+X$XoX$X+X$X$X$XoXe.=.$.=.=.E g h h h h h h h h h h h h h h 3 O O O O A +X+X$X+X$X$X$XoXoX+X+X$X+X$X$X_.=.*.*.*.*.",
"$X+X$X+X+X$X+X$X+X$X+X$XoX$XoXoX0.=.=.$.$.E g h h h h h h h h h h h h h h < O O O O A +X$X+X$XoXoX$X$X$X$X+X+X$XoX$XP.0.*.*.*.*.",
"+X+X$X+X$X+X$XoX$X$X$X+X$XoX$XoX0.=.$.=.*.! g h h h h h h h h h h h h h h 5   O O   l +X$X+X$X$X$X$X$X$X$X+X$X$X$X$X).*.*.*.*.*.",
"$X+X+X$XoXoXoXoXoX].).oX$XoX$X).0.0.=.0.O.h n n n C n n n h n h h n n n c 8 - - < < e L.+X$XoXoX].oXoXoX).).).).].].g.O.O.} O.*.",
"+X$X$X+XoXg.0.0.0.6.! Z.$X$XoXoX]. X]. X].Z.P.P.P.P.g.O.$.O.O.E >.).L.).L.Z.b.L.Z.Z.b.).+X$X+X).0.0.0.0.O.c C K K K 8 < < < < & ",
"$X+X+X$X$Xx.*.*.*.*.g.+X$XoX$X$XoX$X$XoXoX$X$X$X$X$X_.6.$.$.$.0.oX+X+X$X%X$X%X+X$X$X$X$X$X+X$XoX0.*.*.*.*.L g g h h 8 O O O O O ",
"+X+X$X+X%XZ.*.*.*.*.k.$X$X$X$X$X$X$X$XoX$X$X$X$XoX$X_.$.$.*.$.0.+X+X+X$X+X%X+X$X+X$X+X$X$X$X$XoXe.=.*.*.$.! g h h h 8 O O O O O ",
"+X$X+X%X$Xx.*.*.*.*.k.+X+X+XoX$XoX$X$XoXoX$X$XoX$X$X_.=.*.*.$.0.oX$X$X+X+X+X$X+X$XoX$X+XoXoX$XoX0.=.*.*.$.E h h h h 8 $ O O O O ",
"$X+X+X+X$Xx.*.*.*.*.k.$X$X+XoXF.v._.oX_.v.F.oX$X$X$X_.=.*.*.*.0.{.+X$X+X$X+X+X+X$X$XoX$X$X$X$XoX0.*.*.*.$.E h h h h 8 $ O O O O ",
"+X$X%X+XoXx.*.*.*.*.k.$X+X$XoX6.=.k.oXk.$.0.oX$XoX$X_.$.*.*.*.0.oX+X+X$X+X$X+X$XoX$X$X$X$XoX$XoX0.*.*.*.$.! h h h n 8 O O O O O ",
"+X$X$X+X$Xx.*.*.*.*.k.$X$X$X$XP.F.].$X].F.).+X+XoX$X_.=.*.*.*.0.oX+X$X+X$X+X+X$X+X+X$X+X$X+X+XoXe.*.*.*.$.E g h h h 8 $   O O O ",
"$X+X+X$X$Xx.*.*.*.$.k.$XoXoX$X$X$X+X$X$X$X$X$X$X$XoX_.=.*.*.*.6.oX+X+X+X+X$X$X+X$X+X+X$X$X+X+XoX0.*.*.*.$.E h h h h 8 $ O O O O ",
"+X$X$X+X$Xx.$.*.*.$.k.$X$X$X$XoX$X$X+X+X$X$X+X+X$X$X_.$.*.*.$.0.oX+X+X$X$X+X+X$X+X$XoX$X+X$X+XoXe.*.*.*.*.! h h h h y O O O O O ",
"+X+XoX$X$Xx.*.*.*.*.k.$XoX$X$X$X$X$X$X+X$X+X$X+XoX$X_.6.*.*.*.0.].+X$X+X+X$X+X+X$X+X$X$X$X+X$XoX0.*.*.*.*.L h h h h 8 $ O O O O ",
"$X+X$X$X$Xx.*.*.*.$.g.$X$X$X$X$X$X$X$X$X$X$X$X$X$X$XP.=.6.$.$.6.oX$XoX$X$X+X+X+XoX$X$X$X$X+X$XoX0.*.=.=.$.E h h h h 8 O O     O ",
").).).P.L.6.O.O.O.O.n a.P.P.P.Z.b.Z.Z.b.b.L.oX+XoX$XF.0.0.0.0.} 3.oX$X$XoXoX].oX].].F.].+X$X+X).e.0.e.0.O.n K L S K 8 5 < 5 5 & ",
"c n n n n n n n n h h h n S S u < < < - < L oX$XoX$XoXoXoXoXoX).).oX$XoXoXk.6.0.6.6.` L.+X$X+X+XoXoXoXoX].).).).).).g.O.O.O.} $.",
"c h h h h h h h h h h h h h h h $   O O $ >.$X$X$X$XoX$X+X+X+X$X$X$X$XoX$Xk.$.$.*.*.g.+X$X+X+X$X$XoX$X$X$XoX$X$X$X$XP.*.$.$.$.$.",
"h h h h h h h h h h h h h h h u @ O O O O >.%X%X$X+X$X$X+X$X+X$XoX$XoX$X$Xx.*.*.*.*.k.+X$X+X$X+XoX$XoX$XoX$X$X$X$X+X_.=.$.*.*.*.",
"h h h h h h h h h h h h h h h u & O O O $ >.%X$X+X$X+X+X$X+X$X+X$X+X$X+X$Xx.*.*.*.*.k.$X+X+X+X$X$X$X$X$X$X$XoX$X+X$XP.0.*.=.*.*.",
"h h h h h h h h h h h h h h h h & O O O $ 1.%X$X+X+X+X$X+X+X$X+X$X+X+X$X+Xx.$.*.*.*.k.$X+X$X+X+X$X].x.v.oXoX$XoX$X$XP.*.*.*.*.*.",
"h h h h h h h h h h h h h h h h & O O O O 1.$X$X$X+X$X+X+X$X+X$X+X+X$X+X$Xx.*.*.*.*.k.$X$X+X$X$X$XF.*.*._.$X$XoX+X$X_.*.*.*.*.*.",
"h h h h h h h h h h h h h h h u @ O O O O 1.$X$X$XoX$X$XoX$X$X$X$X+X$X+X$Xx.*.*.*.*.k.$X$X+X$X+X$XoXP._.oXoX_.oX$X$X_.=.*.*.*.*.",
"h h h h h h c h h h h h h h h u < O O O O 1.$X$X$X$X$XoX$X$XoX$X+X$X+X$X$Xx.*.*.*.*.k.$X+X$X+X$XoX$XoXoXoXe.=.k.oXoX_.*.=.*.*.*.",
"h h h h h h h h h h h h h h h h @ O O O $ 1.$X$X$XoX$XoX$XoX$XoX+X$X+X+X+Xx.*.*.*.*.k.+X+X$X+X+X$XoX$X$XoXx.k.F.$X$X_.*.*.*.*.*.",
"h h h h h h h h h h h h h h h u < O O O O 1.$X+X$XoX$X$X$X$X$XoX$X+X$X+X$Xx.*.6.*.*.k.$X$X+X$X+X$X$X$XoXoX$XoX$XoX$X_.=.*.*.*.*.",
"h h h h h h h h h h h h h h h y @ O O O O :.%X+X+X+X%X$XoX$X$X$X$XoX$XoX$Xx.$.$.$.$.a.oX$XoXoX$X$XoX$X$X+X$X$X%X$X%XP.0.*.=.=.*.",
"L ( / / ! K C K K n y S ! ! / L e e e e e T {.+X%X+X).)._._._.Z.).$X$X$XoXk.u.k.e.0.( b.$X$X$X]._._._._.L.g.b.b.Z.b.} ! ~ ~ ~ } ",
"+XoXoXoXoXe.$.*.*.$.( P.oXoXoXoXoXoXoXoX+XoX+X+XoX$XF.6.6.=.*.} b.$X$X$XoXoXoXoXoXoXoXoXoX$X$X].0.=.*.=.O.h h h n c 8 $ $ $ $ O ",
"+X$X+X+X$Xx.*.*.*.*.k.$X+X$XoX$X+X+X+X$X+X+X+X+X$X$X_.*.*.*.*.0.].$XoX$X$X$X$X$X$X$X$X$XoX$X+XoX0.$.*.*.$.E h h h c 8 O O O O O ",
"$X+X$X+X$Xx.*.*.*.*.k.$X$X$X+X$X+X+X$X+X+X$X+X$X$X$X_.*.$.*.$.0.oX$X$XoX]._.oX$X$X$X$X$X$X+X$XoX0.*.*.*.*.! h h h h 8 $ O O O O ",
"$X+X+X$XoXZ.*.*.*.*.x.+X+X+X$X+X$X+X+X$X+X+X$X+XoX$X_.=.*.*.$.0.].oX$X].0.*.F.oX$XoX$XoX+X$X+XoXe.*.*.*.$.E h h h h 8 O O O O O ",
"+X$X+X+X$Xx.*.*.*.*.x.+X$X+X+X+X+X$X+X+X$X+X$X+X$X$XP.*.*.*.*.0.oX$XoXoXk.k.P.$X$X$X$XoX$X+X+XoX0.=.=.*.$.E h h h h 8 $ O O O O ",
"$X+X+X$X$Xx.*.*.*.*.k.$X+X+X$X$X$X+X$X$X+X$X+X$X+X$X_.*.*.*.*.0.].$X$XoX$XoX$XoX$XoX$X$X+X+X$XoX0.=.*.*.=.E h h h h 8 O O O O O ",
"+X$X$X$X$Xx.*.*.*.*.x.+X$XoXx.k.).$XoXoX$X$X$X+XoX$X_.=.*.*.$.0. XoXoX$X$X$X$XoX$X+X$X$X+X$X$XoX0.*.*.*.$.E h h h h 8 $ O O O O ",
"$XoX$XoX$Xx.*.*.*.$.k.$X+XoX6.*.k.$X$X$XoX$X+X+X$XoX_.=.*.*.$.0.oX$X$X$XoX$X$X$X+X$X+X+X$X+X+XoX0.*.*.*.*.K g h h h 8 O O O O O ",
"+X$X$X$X$Xx.*.*.*.*.g.+X$XoX].P.oX+X$XoX$X$X+X$X$X$XP.=.*.*.$.0. X$XoXoX$X$XoX$X+X+X+X$X+X+X$XoXe.=.$.*.*.! g h h n 8 O O O O O ",
"$X+XoX$X$Xx.*.*.*.*.k.$X$X$X$XoX+X$X+X$X$XoX$X+XoX$X).*.*.*.*.0. XoX$X$XoX$XoX$X$X+X$X+X+X$X+XoX0.*.$.$.$.E h h h h y $ O O O O ",
"+X+X$X+XoXk.*.*.*.*.k.$XoXoX$X$X$XoX$X$XoX$X$X$X$X$XP.=.*.*.*.0.oX$X$X$X$X$X$XoX$XoX$X$XoX$X$XoX0.*.*.*.*.! h h h h 8 O O O $ O ",
"&X$X+X$XoX0.*.=.*.=.&X&X$X$XoX$X$X$X$XoX$X$XoX$X$XoXk.=.*.*.*.&X&X$XoX$X$XoX$X$X$X$X$XoX$X$X$XF.=.=.*.*.&X&Xh h h h 5 O O O O &X",
"&X&X&X&X&X&X&X&X&X&X&X&X&X&X&X&X&X&X&X&X&X&X&X&X&X&X&X&X&X&X&X&X&X&X&X&X&X&X&X&X&X&X&X&X&X&X&X&X&X&X&X&X&X&X&X&X&X&X&X&X&X&X&X&X",
"&X&X&X&X&X&X&X&X&X&X&X&X&X&X&X&X&X&X&X&X&X&X&X&X&X&X&X&X&X&X&X&X&X&X&X&X&X&X&X&X&X&X&X&X&X&X&X&X&X&X&X&X&X&X&X&X&X&X&X&X&X&X&X&X"
};
