/* XPM */
static char *xpm__new_2[] = {
/* columns rows colors chars-per-pixel */
"64 64 121 2 ",
"   c #262626",
".  c #252729",
"X  c #252829",
"o  c #292929",
"O  c #2C2E30",
"+  c #363636",
"@  c #3D3D3E",
"#  c #6E2E01",
"$  c #712F01",
"%  c #733001",
"&  c #793302",
"*  c #663F23",
"=  c #664024",
"-  c #694325",
";  c #6E482C",
":  c #775A2F",
">  c #7A5E31",
",  c #7C5538",
"<  c #7C6032",
"1  c #3E3F42",
"2  c #444444",
"3  c #4B4846",
"4  c #444548",
"5  c #4B4B4B",
"6  c #555555",
"7  c #5C5A56",
"8  c #555759",
"9  c #57595A",
"0  c #5A5A5A",
"q  c #626263",
"w  c #6C6C6C",
"e  c #737373",
"r  c #777778",
"t  c #7A7A7B",
"y  c #803703",
"u  c #833804",
"i  c #8D3D03",
"p  c #913F02",
"a  c #954207",
"s  c #984503",
"d  c #9E4A02",
"f  c #A14D02",
"g  c #A74B09",
"h  c #AA4E08",
"j  c #A65102",
"k  c #AE5801",
"l  c #B05A01",
"z  c #BC6401",
"x  c #805536",
"c  c #8C6E3C",
"v  c #92713C",
"b  c #C75B0E",
"n  c #D47901",
"m  c #DD6611",
"M  c #E36A12",
"N  c #ED6F13",
"B  c #EE7113",
"V  c #F57315",
"C  c #FB7616",
"Z  c #F67812",
"A  c #FF7816",
"S  c #C96B22",
"D  c #D37838",
"F  c #EF7C29",
"G  c #845D41",
"H  c #866043",
"J  c #CF871B",
"K  c #CF8B18",
"L  c #E58800",
"P  c #EA8C00",
"I  c #F18F03",
"U  c #F39400",
"Y  c #F89503",
"T  c #F79800",
"R  c #FF9F00",
"E  c #F49F19",
"W  c #FFA000",
"Q  c #FCA71B",
"!  c #DA9A2F",
"~  c #FA822C",
"^  c #F9B33F",
"/  c #F3914C",
"(  c #F8B342",
")  c #EAA474",
"_  c #F3C26F",
"`  c #848485",
"'  c #878789",
"]  c #8C8B8D",
"[  c #929294",
"{  c #9C9C9D",
"}  c #A19F9D",
"|  c #9E9EA1",
" . c #A2A2A2",
".. c #A6A6A9",
"X. c #ACACAD",
"o. c #AFAFB1",
"O. c #B2B2B5",
"+. c #B7B7BB",
"@. c #BBBBBC",
"#. c #DCC0AF",
"$. c #DBC1B3",
"%. c #ECD8B6",
"&. c #EBD9BC",
"*. c #BEBEC2",
"=. c #C3C3C4",
"-. c #C4C4C9",
";. c #CBCBCE",
":. c #D7CAC4",
">. c #D5CFCF",
",. c #CECED3",
"<. c #D2D2D5",
"1. c #D4D4D9",
"2. c #DCDCDD",
"3. c #E9E0CF",
"4. c #E8E4DD",
"5. c #DFDFE0",
"6. c #E6E6E6",
"7. c #E7E7E8",
"8. c #E7E8EA",
"9. c #E8E8E8",
"0. c None",
/* pixels */
"0.0.0.0.0.0.0.0.0.0.0.0.0.0.0.0.0.0.0.0.7.7.6.4.%._ Q W W W W R A A A A A ~ ) #.>.1.1.1.0.0.0.0.0.0.0.0.0.0.0.0.0.0.0.0.0.0.0.0.",
"0.0.0.0.0.0.0.0.0.0.0.0.0.0.0.0.0.0.9.9.7.7.9.9.9.6.%.^ W W W T A A A A / #.<.<.1.1.1.1.1.1.0.0.0.0.0.0.0.0.0.0.0.0.0.0.0.0.0.0.",
"0.0.0.0.0.0.0.0.0.0.0.0.0.0.0.0.0.9.6.9.7.9.9.9.7.7.8.3.( W W W ~ Z Z / :.1.<.1.1.1.1.1.1.1.<.0.0.0.0.0.0.0.0.0.0.0.0.0.0.0.0.0.",
"0.0.0.0.0.0.0.0.0.0.0.0.0.0.0.0.6.6.9.9.7.>.*.;.5.9.9.8.&.! K K S S D #.1.<.1.,.+.o.*.<.1.1.1.<.0.0.0.0.0.0.0.0.0.0.0.0.0.0.0.0.",
"0.0.0.0.0.0.0.0.0.0.0.0.0.0.0.0.6.6.9.5.{ w q q ] <.8.8.8.{ 7 7 3 2 ] 1.1.1.*.r 5 5 6 ' ;.1.<.1.0.0.0.0.0.0.0.0.0.0.0.0.0.0.0.0.",
"0.0.0.0.0.0.0.0.0.0.0.0.0.0.0.7.9.6.6.} 6 0 6 0 6 ` 5.8.9.-.q 6 3 5 O.1.1.,.e 1 2 2 2 2 ] <.1.<.1.0.0.0.0.0.0.0.0.0.0.0.0.0.0.0.",
"0.0.0.0.0.0.0.0.0.0.0.0.0.0.0.7.9.9.2.w 7 0 0 0 0 q $.8.9.2.w 8 2 0 -.1.1.o.5 2 2 2 2 2 9 -.1.1.1.0.0.0.0.0.0.0.0.0.0.0.0.0.0.0.",
"0.0.0.0.0.0.0.0.0.0.0.0.0.0.0.7.9.9.;.q 0 0 0 0 0 0 o.8.9.5.e 6 2 q ;.1.1.| 2 2 2 2 2 4 5 +.1.1.1.0.0.0.0.0.0.0.0.0.0.0.0.0.0.0.",
"0.0.0.0.0.0.0.0.0.0.0.0.0.0.0.7.6.9.1.e 7 7 0 0 7 q =.9.9.1.e 6 2 0 -.1.1.o.4 2 2 2 2 2 8 -.1.1.1.0.0.0.0.0.0.0.0.0.0.0.0.0.0.0.",
"0.0.0.0.0.0.0.0.0.0.0.0.0.0.0.7.7.7.9.} 0 6 9 7 6 ` 5.7.9.-.q 8 4 5 +.1.1.,.e 1 2 2 2 2 ] 1.1.1.1.0.0.0.0.0.0.0.0.0.0.0.0.0.0.0.",
"0.0.0.0.0.0.0.0.0.0.0.0.0.0.0.0.7.6.7.5.{ w 0 q ] <.9.7.9.} 0 7 3 2 ] 1.1.1.*.e 5 4 6 ' ;.1.1.1.0.0.0.0.0.0.0.0.0.0.0.0.0.0.0.0.",
"0.0.0.0.0.0.0.0.0.0.0.0.0.0.0.0.7.7.7.9.7.>.=.;.6.7.7.9.&.! J J S S D $.1.1.1.,.+.o.*.<.1.1.1.1.0.0.0.0.0.0.0.0.0.0.0.0.0.0.0.0.",
"0.0.0.0.0.0.0.0.0.0.0.0.0.0.0.0.0.7.7.7.7.9.9.9.6.6.7.3.( R W R A A A / :.1.1.1.1.1.1.1.1.<.1.0.0.0.0.0.0.0.0.0.0.0.0.0.0.0.0.0.",
"0.0.0.0.0.0.0.0.0.0.0.0.0.0.0.0.0.0.7.7.7.7.7.9.7.6.%.^ R R W R I A A C / $.1.1.1.1.1.1.1.1.0.0.0.0.0.0.0.0.0.0.0.0.0.0.0.0.0.0.",
"0.0.0.0.0.0.0.0.0.0.0.0.0.0.0.0.0.0.0.0.7.7.9.4.%._ E U U U U U V N N N N F ) $.>.1.1.1.0.0.0.0.0.0.0.0.0.0.0.0.0.0.0.0.0.0.0.0.",
"0.0.0.0.0.0.0.0.0.0.0.0.0.0.0.0.0.0.0.0.0.0.0.0.0.0.f d d d d s u y y y y i 0.0.0.0.0.0.0.0.0.0.0.0.0.0.0.0.0.0.0.0.0.0.0.0.0.0.",
"0.0.0.0.0.0.0.0.0.0.0.0.0.0.0.0.0.0.0.0.0.0.0.0.0.0.p p p p p i # # # # # # 0.0.0.0.0.0.0.0.0.0.0.0.0.0.0.0.0.0.0.0.0.0.0.0.0.0.",
"0.0.0.0.0.0.0.0.0.0.0.0.0.0.0.0.0.0.0.0.0.0.0.0.0.0.i p p i p i # # # # # # 0.0.0.0.0.0.0.0.0.0.0.0.0.0.0.0.0.0.0.0.0.0.0.0.0.0.",
"0.0.0.0.0.0.0.0.0.0.0.0.0.0.0.0.0.0.0.0.0.0.0.0.0.0.l j j j j j i i i i i a 0.0.0.0.0.0.0.0.0.0.0.0.0.0.0.0.0.0.0.0.0.0.0.0.0.0.",
"0.0.0.R R W R R 0.0.0.0.0.0.0.R R R W R W R R R R R R T T T T Y V V V C C F A A A A A A A A A A A 0.0.0.0.0.0.0.A A A A A 0.0.0.",
"0.0.R W R W R R R W 0.0.0.0.0.R R R W R R R W R R R W W R R R R A A A A A A A A A A A A A A A A A 0.0.0.0.0.A A A A A A A A 0.0.",
"0.R R R R R W R R R 0.0.0.0.0.R W R R R R R R R W R R R R R R Y A A A A A A A A A A A A A A A A A 0.0.0.0.0.A A A A A A A A A 0.",
"R W R R R R R R R W T 0.0.0.0.T R R R R R W W R R R R R R R R R A A A A A A A A A A A A A A A A V 0.0.0.0.V A A A A A A A A A A ",
"R R R W R W R R W W T j p p s P W W W R R R R R R W R W R R R Y ~ A A A A A A A A A A A A A A A M & # # i V A A A A A A A A A A ",
"R R R R W R R W R R R k i p s P W R R R W R R R R R R W W R R R A A A A A A A A A A A A A A A A M & # # a C A A A A A A A C A A ",
"W R R W R R R R R W T j p p s P W R R W R R R W W R R R R R W R A A A A A A A A A A A A A A A A M & # # i V A A A A A A A A A A ",
"R R R R W R R W R R T 0.0.0.0.T W R R R R W L z z z z z z z z z j g g g g g g g g m A A A A A A V 0.0.0.0.C A A A A A C A A A A ",
"0.R R W R R R R W W 0.0.0.0.0.R R R R W W W n i i p i p i i i i % # # # # # # # # b A A A A A A A 0.0.0.0.0.A A A A A A A A A 0.",
"0.0.R W W R W R R R 0.0.0.0.0.R R R R R W W n p p p p p a p i i % $ # # # # # # # b A A A A A A A 0.0.0.0.0.A A A A A A A A 0.0.",
"0.0.0.T U T U U 0.0.0.0.0.0.0.W R W R R W W n p a p p p p p a i % # # $ # # # # # b A A A A A A A 0.0.0.0.0.0.0.N N V N V 0.0.0.",
"0.0.0.0.d f f s 0.0.0.0.0.0.0.R R W R W R W n i p p p p p p p i % # # # # # # # # b A A A A A A A 0.0.0.0.0.0.0.& u u u 0.0.0.0.",
"0.0.0.0.i p p 0.0.0.0.0.0.0.0.R R R R R R W n a p p p p p p p i % # # $ # # # # # b A A A A A A A 0.0.0.0.0.0.0.# # # # 0.0.0.0.",
"0.0.0.0.p p p 0.0.0.0.0.0.0.0.W R R R R W W n p a i i a a i a i % # $ # # # # # $ b A A A A A A A 0.0.0.0.0.0.0.# # # # 0.0.0.0.",
"0.0.0.0.d f f s 0.0.0.0.0.0.0.R R W R W R W n p i a i i i a i i & # # # # $ # $ # b A A A A A A A 0.0.0.0.0.0.0.& u i & 0.0.0.0.",
"0.0.0.T U T U U 0.0.0.0.0.0.0.R R W R R W W n i a i i a i a i i % # # # # $ # # # b A A A A A A A 0.0.0.0.0.0.0.N N V N V 0.0.0.",
"0.0.R W R R R W R R 0.0.0.0.0.R R R R R W W n a i a a i a i a a % # # # # # # $ # b A A A A A A A 0.0.0.0.0.A A A A A A A A 0.0.",
"0.R W R W R R W R R 0.0.0.0.0.R R R R R R W n i i i i i i i i i # # # # # # # # # b A C A A A A A 0.0.0.0.0.A A A A A A A A A 0.",
"R R R R R R R R W R R 0.0.0.0.W R W R W R W L z z z z z z z b z g g g g g g g g g m A A A A A A A 0.0.0.0.A A A A A A A A A A A ",
"W R R W 0.0.0.R R R R 0.0.0.0.R R R R R R R R W R W W W R R R R A A A A A A C A A A A A A A A A A 0.0.0.0.A A A A 0.0.0.A A A A ",
"R R R R 0.0.0.W R R W 0.0.0.0.W W R W R W R R R R R W W R R R Y A A A A A A A A A A A A A A A A A 0.0.0.0.A A A A 0.0.0.A A A A ",
"R R R R 0.0.0.R W W W 0.0.0.0.W R R R R R R R W T W W W W R R R I A A A A A A A A A A A A A A A A 0.0.0.0.A A A A 0.0.0.A A A A ",
"R W W R 0.0.0.0.W W W 0.0.0.0.W R R R W W R R R W W W W R R R Y A A A A A A A C A A A A A A A A A 0.0.0.0.A A A 0.0.0.0.A A A A ",
"0.R R 0.0.0.0.0.0.W 0.0.0.0.0.W W R W R R W R R W W T W W R W R A A A A C A A A A A A A A A A A A 0.0.0.0.0.A 0.0.0.0.0.0.A A 0.",
"0.0.0.0.0.0.0.0.0.0.0.0.0.0.0.W R R R R R R R W W W W W R R W R A A A A A A A A A A A A A A A A A 0.0.0.0.0.0.0.0.0.0.0.0.0.0.0.",
"0.0.0.0.0.0.0.0.0.0.0.0.0.0.0.W W T W T T T W R T W T W W T W T C C C C C C C C C C C C C C A C A 0.0.0.0.0.0.0.0.0.0.0.0.0.0.0.",
"0.0.0.0.0.0.0.0.0.0.0.0.0.0.0.v H < < < < < > > < < < < < > > : - - * * = = * * * * * ; , G H , , 0.0.0.0.0.0.0.0.0.0.0.0.0.0.0.",
"0.0.0.0.0.0.0.0.0.0.0.0.0 0 0 9 9 4 4 1 2 2 2 1 2 1 2 2 2 2 2 1 o o X X X X X X X O 4 8 9 9 8 4 2 2 4 4 0.0.0.0.0.0.0.0.0.0.0.0.",
"0.0.0.0.0.0.0.0.0.0.0.0 0 0 0 9 8 3 2 2 2 4 2 2 2 2 2 1 2 1 2 @ o o o . X X X o + 5 0 0 0 0 8 2 2 2 4 4 4 0.0.0.0.0.0.0.0.0.0.0.",
"0.0.0.0.0.0.0.0.0.0.0 0 0 0 0 0 q 7 5 1 2 2 2 2 5 0 7 6 6 6 0 6 1 1 1 1 1 1 @ @ 6 7 7 7 8 q q 6 5 1 2 2 2 2 0.0.0.0.0.0.0.0.0.0.",
"0.0.0.0.0.0.0.0.0.0 0 0 0 q [ =.,.-.o.` 5 2 2 2 0 -.<.<.<.<.<.<.=.*.*.*.*.*.O.e 8 0 0 q [ *.<.-.o.` 5 2 2 2 2 0.0.0.0.0.0.0.0.0.",
"0.0.0.0.0.0.0.0.0.0 0 0 w +.7.9.6.1.1.1...6 2 2 2 | 9.9.9.9.6.6.1.<.1.1.1.1. .0 7 8 w +.6.9.6.1.1.1...6 2 2 2 0.0.0.0.0.0.0.0.0.",
"0.0.0.0.0.0.0.0.0 0 0 0 X.9.9.9.8.1.1.1.1.| 5 2 2 w 4.9.6.6.6.6.1.1.<.1.1.,.r 9 8 q o.9.6.9.6.2.1.1.1.| 5 2 2 2 0.0.0.0.0.0.0.0.",
"0.0.0.0.0.0.0.0.0 0 7 t 4.9.6.=.@.o.O.,.1.,.w 1 2 5 =.9.9.9.6.6.1.1.1.1.1.@.q 0 0 t 5.9.6.-.@.X.O.1.1.,.w 1 2 4 0.0.0.0.0.0.0.0.",
"0.0.0.0.0.0.0.0.0 0 9 } 9.7.2.r 0 4 q ,.1.1.] 2 2 2 O.9.9.9.6.6.1.1.1.<.1.X.0 0 8 } 9.9.2.r 0 3 q ;.,.5.] 1 2 2 0.0.0.0.0.0.0.0.",
"0.0.0.0.0.0.0.0.0 0 0 X.8.9.5.e 6 2 q ;.1.1.{ 2 2 2 ..9.6.6.9.6.1.1.1.1.2...0 9 7 X.9.9.2.r 6 4 q ;.1.1.| 4 2 2 0.0.0.0.0.0.0.0.",
"0.0.0.0.0.0.0.0.0 0 9  .9.8.4.e 6 2 0 ,.1.1.[ 2 2 3 X.9.9.6.6.6.1.1.1.1.1.X.0 9 7  .9.6.2.e 6 2 0 ;.1.1.[ 1 2 2 0.0.0.0.0.0.0.0.",
"0.0.0.0.0.0.0.0.0 0 6 ' 6.9.4.X.} ] { ,.1.<.r 1 2 5 @.7.6.6.6.6.1.<.1.1.1.+.q 6 0 ` 6.8.5.X.{ ] { ,.1.1.e 2 2 2 0.0.0.0.0.0.0.0.",
"0.0.0.0.0.0.0.0.0 0 0 q *.9.9.8.9.1.1.1.1.o.5 2 1 q 1.7.6.6.6.6.1.1.1.1.1.;.e 6 0 q $.8.8.8.8.2.1.1.1.O.5 2 2 2 0.0.0.0.0.0.0.0.",
"0.0.0.0.0.0.0.0.0 0 0 0 r ;.9.9.6.1.1.1.*.q 2 2 2 [ 6.7.7.7.6.6.1.1.1.1.1.1.[ 0 0 6 r ;.8.8.6.1.1.1.*.q 2 2 2 3 0.0.0.0.0.0.0.0.",
"0.0.0.0.0.0.0.0.0.0 0 0 7 e o.1.5.1.-.| 0 2 2 2 7 ;.6.6.5.6.6.4.1.1.,.,.,.<.*.w 0 0 7 e o.1.5.<.-.| 0 2 2 2 2 0.0.0.0.0.0.0.0.0.",
"0.0.0.0.0.0.0.0.0.0.0 0 0 0 0 w t w 0 3 2 2 2 2 6 e e e e e e e 0 0 0 0 0 0 0 5 6 0 0 0 0 w t w 8 3 2 2 2 2 0.0.0.0.0.0.0.0.0.0.",
"0.0.0.0.0.0.0.0.0.0.0.0 0 0 0 0 6 2 2 2 2 2 2 2 1 2 2 @ 1 2 1 @ o             X @ 0 0 0 0 0 8 2 2 2 2 2 3 0.0.0.0.0.0.0.0.0.0.0.",
"0.0.0.0.0.0.0.0.0.0.0.0.0 0 0 0 7 2 3 2 2 2 2 3 2 2 2 2 2 2 2 2 o o o o o o o o o + 5 0 0 0 6 3 2 2 2 2 0.0.0.0.0.0.0.0.0.0.0.0.",
"0.0.0.0.0.0.0.0.0.0.0.0.0.0.0 0 6 3 2 2 2 2 2 2 2 2 2 2 2 2 2 2 O o o o o o o o o o o @ 5 7 0 4 2 2 0.0.0.0.0.0.0.0.0.0.0.0.0.0."
};
